<svg xmlns="http://www.w3.org/2000/svg" viewBox="0 0 1075 200" role="img" aria-label="First Night Access"><path d="M39.5 93.36 L37.42 93.2 C37.21 93.31 36.85 93.67 36.34 94.28 C35.83 94.9 35.04 95.48 33.99 96.02 C32.93 96.56 32.3 97.09 32.1 97.6 C31.89 98.11 31.69 98.51 31.48 98.8 C31.28 99.08 31.03 99.45 30.75 99.91 C30.47 100.38 30.12 100.76 29.71 101.07 C29.3 101.38 28.96 101.86 28.7 102.5 C28.45 103.14 27.98 103.46 27.32 103.46 C25.11 103.46 24 102.05 24 99.22 C24 98.4 24.51 96.88 25.54 94.67 C26.57 92.46 27.7 91.16 28.94 90.77 C30.17 90.39 31.11 90.04 31.75 89.73 C32.4 89.42 32.99 89.15 33.53 88.92 C34.07 88.69 35.5 87.75 37.81 86.1 C37.91 86 39.22 85.62 41.74 84.95 L44.6 83.25 C45.01 82.74 45.37 82.45 45.68 82.4 C45.99 82.35 46.4 82.2 46.91 81.94 L48.22 81.78 C48.79 81.12 49.69 80.6 50.92 80.24 L53.08 79.32 C54.52 78.49 56.38 77.75 58.64 77.08 L59.1 76.77 C59.2 76.67 59.36 76.56 59.56 76.46 L61.65 76.62 C62.26 76.62 62.68 76.13 62.88 75.15 C63.09 75.05 63.24 75 63.34 75 L65.27 75.15 C65.38 75.15 65.63 75.02 66.04 74.76 C66.46 74.51 66.93 74.33 67.47 74.22 C68.01 74.12 68.46 73.84 68.82 73.38 C69.18 72.91 69.57 72.68 69.98 72.68 L71.29 72.68 C71.7 72.68 72.19 72.28 72.76 71.48 C73.32 70.69 74.09 69.88 75.07 69.05 C75.28 69.16 75.48 69.21 75.69 69.21 C76 69.21 76.28 68.86 76.54 68.17 C76.79 67.47 77.17 66.92 77.66 66.51 C78.14 66.1 78.7 65.36 79.31 64.31 C79.93 63.26 80.51 62.59 81.05 62.3 C81.59 62.02 82.1 61.61 82.59 61.07 C83.08 60.53 83.58 60.23 84.1 60.18 L84.25 60.03 L84.25 59.03 C84.25 58.2 84.97 57.43 86.41 56.71 C86.62 56.61 86.9 56.4 87.26 56.09 L87.26 54.94 C87.26 54.83 87.52 54.49 88.03 53.9 C88.55 53.3 88.8 52.88 88.8 52.62 C88.8 52.21 89.61 51.12 91.23 49.34 C92.85 47.57 94.01 46.48 94.7 46.06 C95.4 45.65 96.23 44.62 97.21 42.98 L98.29 42.59 C99.37 41.15 100.27 40.11 100.99 39.47 C101.71 38.83 102.38 37.99 103 36.96 L104.15 35.65 C104.46 35.55 104.62 35.34 104.62 35.03 C104.62 34.72 104.31 34.57 103.69 34.57 C103.02 34.57 102.07 34.36 100.84 33.95 L99.53 34.42 L98.14 34.26 L96.21 35.19 L94.36 35.03 C93.07 35.8 92.17 36.24 91.66 36.34 C91.14 36.45 90.75 36.55 90.46 36.65 C90.18 36.76 89.86 36.86 89.5 36.96 C89.14 37.06 88.65 37.3 88.03 37.66 C87.42 38.02 86.57 38.2 85.49 38.2 C85.08 38.2 84.57 38.44 83.98 38.93 C83.39 39.42 82.48 40.02 81.24 40.74 C81.24 40.84 81.19 40.9 81.09 40.9 L78.85 40.74 C76.54 43.06 75.07 44.21 74.46 44.21 L72.68 43.9 C70.88 44.57 69.48 45.34 68.48 46.22 C67.47 47.09 66.51 47.79 65.58 48.3 L64.19 48.15 C62.96 49.38 62.18 50.11 61.84 50.35 C61.51 50.58 61.2 50.98 60.92 51.54 C60.63 52.11 60.13 52.39 59.41 52.39 L57.71 53.7 C57.71 54.47 57.12 55.32 55.94 56.25 L55.79 56.56 L55.79 58.25 C55.79 58.67 55.39 59.22 54.59 59.91 C53.79 60.61 53.19 60.95 52.78 60.95 C51.85 60.95 50.91 60.35 49.96 59.14 C49.01 57.93 48.53 56.69 48.53 55.4 C48.53 55.19 48.69 54.68 49 53.86 L49.77 50.54 C50.18 48.94 52.83 47.35 57.71 45.76 L58.95 44.83 C59.98 44.21 60.72 43.9 61.19 43.9 L62.11 43.6 L62.57 42.44 C62.88 42.23 63.41 41.98 64.16 41.67 C64.9 41.36 65.58 40.95 66.2 40.43 C66.82 39.92 67.72 39.43 68.9 38.97 L70.13 38.2 L71.75 38.2 C74.17 35.78 79.73 33.28 88.42 30.71 C97.11 28.14 104.18 26.85 109.63 26.85 C111.12 26.85 112.6 27.79 114.07 29.67 C115.53 31.55 116.27 33.28 116.27 34.88 C116.27 35.86 115.7 36.86 114.57 37.89 C113.75 38.3 113.13 39.24 112.72 40.7 C112.31 42.17 111.61 43.24 110.64 43.9 C108.58 45.7 107.47 46.81 107.32 47.22 L106.62 48.76 C106.42 49.23 106.08 49.56 105.62 49.77 C105.16 49.97 104.72 50.54 104.31 51.46 C103.9 52.39 102.84 53.08 101.15 53.55 C101.04 53.6 100.97 53.92 100.92 54.51 C100.86 55.1 100.25 55.73 99.07 56.4 L98.14 57.17 C97.63 58.82 97.14 59.77 96.67 60.03 L95.9 60.8 C95.18 63.32 94 64.58 92.35 64.58 C91.99 64.58 91.67 65.03 91.39 65.93 C91.11 66.83 90.35 67.64 89.11 68.36 L89.11 68.82 C91.32 68.1 92.92 67.74 93.9 67.74 L94.98 67.59 L95.44 67.13 C95.75 67.33 96.06 67.43 96.37 67.43 C97.03 67.43 97.78 67.07 98.6 66.35 L99.84 66.51 C99.94 66.41 100.12 66.35 100.38 66.35 L104.33 65.2 C105.47 64.99 106.73 64.73 108.12 64.43 L108.9 64.43 C110.65 64.43 112.02 64.97 113 66.05 C113.98 67.13 114.47 68.44 114.47 69.98 L114.16 72.14 L114.32 73.3 C114.32 73.61 113.83 74.07 112.85 74.69 L112.08 75.3 C110.84 76.38 109.53 76.92 108.14 76.92 C105.77 76.92 104.35 76.33 103.89 75.15 C103.89 74.94 103.54 74.82 102.85 74.76 C102.15 74.71 101.62 74.58 101.26 74.38 C100.9 74.17 100.62 74.07 100.41 74.07 C99.74 74.07 99.05 73.97 98.33 73.76 C97.4 74.38 96.4 74.69 95.31 74.69 L94.85 74.69 L93.92 74.38 L92.45 75.46 C92.35 75.46 92.2 75.41 91.99 75.3 C91.79 75.2 91.58 75.15 91.37 75.15 C91.06 75.15 90.72 75.27 90.33 75.5 C89.94 75.73 89.54 75.84 89.13 75.84 L88.05 75.46 C87.74 75.61 87.4 75.72 87.01 75.77 C86.62 75.82 86.2 76.15 85.73 76.77 C85.27 77.39 84.78 77.7 84.27 77.7 C83.39 77.7 82.54 78.54 81.72 80.24 L81.25 80.7 L80.79 80.7 C80.43 80.7 80.17 81.13 80.02 81.98 C79.86 82.83 79.68 83.35 79.48 83.56 C78.65 83.66 78.15 83.93 77.97 84.37 C77.79 84.81 77.52 85.69 77.16 87.03 L76.46 88.42 L75.54 88.96 C75.02 90.91 74.08 92.76 72.72 94.51 C71.35 96.26 70.35 97.72 69.7 98.87 C69.06 100.03 68.47 100.81 67.93 101.23 C67.39 101.64 67.01 102.32 66.81 103.27 C66.6 104.22 66.34 104.86 66.03 105.2 C65.72 105.53 65.11 106.65 64.18 108.55 L61.78 112.64 L60.78 114.88 C60.42 115.6 59.96 115.96 59.39 115.96 C59.08 115.96 58.93 116.22 58.93 116.73 L58.93 118.28 C58.93 118.48 58.41 119.72 57.38 121.98 L56.85 123.52 C56.74 123.73 56.43 123.96 55.92 124.22 C55.41 124.47 55.05 125.14 54.84 126.22 C54.64 127.3 54.34 128 53.96 128.3 C53.57 128.61 53.33 129.27 53.23 130.27 C53.12 131.27 52.61 131.93 51.69 132.24 C51.58 133.17 51.49 133.78 51.42 134.09 C51.34 134.4 50.89 134.73 50.07 135.09 L49.91 135.09 L50.38 137.72 C50.38 138.08 50.27 138.26 50.07 138.26 C49.55 138.57 49.3 138.82 49.3 139.03 L49.61 139.95 L49.61 140.26 C49.61 140.47 49.4 140.96 48.99 141.73 L48.99 141.88 C48.99 142.09 49.19 143.04 49.61 144.74 L49.14 145.66 C49.14 146.59 49.55 147.05 50.38 147.05 L52.76 145.51 C53.48 145.51 53.84 146.36 53.84 148.05 L54.07 148.83 C53.61 149.13 53.38 149.39 53.38 149.6 C53.38 149.8 53.43 150.03 53.53 150.29 C53.64 150.55 53.69 150.78 53.69 150.99 C53.69 152.68 52.17 153.53 49.14 153.53 L48.83 153.53 C48.63 153.53 48.32 153.43 47.91 153.22 L46.29 153.38 C45.67 153.38 44.55 152.79 42.93 151.6 C41.31 150.42 40.08 148.63 39.23 146.24 C38.38 143.85 37.96 141.75 37.96 139.95 L40.12 131.08 C40.32 130.88 40.43 130.54 40.43 130.08 C40.43 129.62 40.61 129.08 40.97 128.46 L41.89 125.91 C43.28 123.44 44.13 122.11 44.44 121.9 C44.75 121.7 45.18 121.44 45.75 121.13 C46.31 120.82 46.7 120.51 46.91 120.2 C45.98 119.9 45.52 119.61 45.52 119.36 C45.52 119.2 45.92 118.43 46.71 117.04 C47.51 115.65 48.17 114.91 48.68 114.8 C48.78 114.8 48.83 114.75 48.83 114.65 C48.83 114.55 48.78 114.34 48.68 114.03 L48.68 113.88 C48.68 113.78 48.99 113.21 49.61 112.18 L49.3 111.02 C49.5 110.71 49.8 110.41 50.18 110.1 C50.57 109.79 51.1 108.93 51.77 107.51 C52.43 106.1 52.95 105.3 53.31 105.12 C53.67 104.94 53.93 104.75 54.08 104.54 L53.85 102.38 C53.85 102.18 54.03 101.89 54.39 101.53 L54.85 100.61 C55.06 100.2 55.32 99.81 55.62 99.45 C55.93 99.09 56.34 98.47 56.86 97.6 L57.4 96.98 C57.6 96.67 57.91 96.03 58.32 95.05 C58.32 94.03 58.89 92.92 60.02 91.74 L62.95 87.18 C65.01 84.05 66.04 82.25 66.04 81.78 L66.04 81.63 C64.91 81.63 63.44 82.13 61.64 83.13 C59.84 84.14 58.84 84.64 58.63 84.64 L56.86 84.18 C56.65 84.28 55.83 85.08 54.39 86.57 C51.97 86.57 49.63 87.36 47.37 88.96 L47.06 89.11 L45.52 89.11 L45.21 89.27 L44.75 90.04 C44.18 90.24 43.49 90.59 42.66 91.08 C41.84 91.57 41.15 91.92 40.58 92.12 Z M131.29 61.73 L130.83 58.72 L130.83 58.25 C130.83 55.84 131.65 54.5 133.3 54.24 C133.66 54.19 134.74 53.86 136.54 53.24 C137.46 53.44 138.43 54.26 139.43 55.67 C140.44 57.08 140.94 58.33 140.94 59.41 C140.94 59.51 140.86 59.75 140.71 60.11 C140.55 60.47 140.45 61.15 140.4 62.15 C140.35 63.15 139.84 64.03 138.89 64.77 C137.94 65.52 136.92 65.89 135.84 65.89 C135.12 65.89 134.21 65.39 133.11 64.39 C132 63.38 131.4 62.5 131.29 61.73 Z M97.96 100.3 L99.2 99.22 L99.66 99.22 C100.02 99.22 100.56 98.83 101.29 98.06 L102.06 97.75 C103.09 96.21 103.99 95.31 104.76 95.05 L106 94.13 C106.2 93.92 106.5 93.74 106.89 93.59 C107.27 93.43 107.89 92.93 108.74 92.08 C109.59 91.23 110.27 90.81 110.79 90.81 C111.3 90.81 111.71 90.86 112.02 90.96 C112.33 90.35 112.95 89.74 113.87 89.15 C114.8 88.56 115.55 87.85 116.12 87.03 L117.12 86.57 C117.94 86.16 118.68 85.63 119.32 84.99 C119.96 84.34 120.8 84.02 121.83 84.02 C123.32 84.02 124.88 84.78 126.5 86.3 C128.12 87.81 128.93 89.27 128.93 90.66 L127.62 96.67 C126.74 101.1 125.77 103.41 124.69 103.62 L124.38 105.24 C123.66 105.75 123.3 106.16 123.3 106.47 L123.76 108.32 C123.76 108.58 123.48 108.97 122.91 109.48 C122.81 109.48 122.76 109.63 122.76 109.94 L122.76 113.11 C122.76 113.67 122.4 114.14 121.68 114.5 C121.78 114.6 121.94 114.7 122.14 114.8 C122.45 114.5 123.14 114.34 124.22 114.34 L125.46 114.5 L127.15 112.8 C127.51 112.69 128.01 112.45 128.65 112.06 C129.3 111.68 130.39 111.18 131.93 110.56 L142.02 102.85 C143.41 101.46 144.46 100.76 145.18 100.76 C145.95 100.76 146.34 101.25 146.34 102.23 C146.34 103.36 146.12 104.3 145.68 105.04 C145.24 105.79 144.85 106.69 144.49 107.74 C144.13 108.8 143.7 109.53 143.21 109.94 C142.72 110.35 142.33 110.8 142.02 111.29 C141.71 111.78 140.87 112.49 139.51 113.42 C138.15 114.34 136.99 115.28 136.04 116.23 C135.09 117.18 134.3 117.86 133.69 118.28 L130.37 120.67 L129.91 121.44 C129.81 121.54 129.33 121.76 128.48 122.09 C127.63 122.43 126.87 122.85 126.2 123.37 L124.82 124.14 C124.51 124.34 124.01 124.47 123.31 124.52 C122.62 124.58 122.01 124.87 121.5 125.41 C120.99 125.95 120.57 126.22 120.27 126.22 L119.11 126.07 L117.57 126.53 C116.69 126.53 115.63 126 114.36 124.95 C113.1 123.89 112.47 122.78 112.47 121.59 L112.47 121.13 L112.63 120.05 C112.63 119.84 112.47 119.32 112.17 118.47 C111.86 117.62 111.7 117.14 111.7 117.04 L111.86 115.96 L111.7 115.5 C111.7 114.11 111.81 113.24 112.01 112.88 C112.22 112.51 112.37 112.01 112.47 111.37 C112.58 110.73 112.68 110.2 112.78 109.79 L113.17 107.86 C113.37 107.24 113.63 106.83 113.94 106.63 C114.04 106.21 114.25 105.52 114.56 104.54 L114.87 103.15 L115.64 102.07 C116.05 101.66 116.29 101.11 116.37 100.42 C116.45 99.72 116.72 98.99 117.18 98.22 C117.64 97.45 117.88 96.98 117.88 96.83 C117.88 96.21 117.57 95.9 116.95 95.9 C116.74 95.9 116.1 96.31 115.02 97.14 L113.63 96.67 C113.53 96.67 113.25 96.93 112.78 97.45 C112.78 97.65 112.55 97.81 112.09 97.91 C111.62 98.01 111.19 98.4 110.78 99.07 L110.16 99.22 L109.15 98.76 L108.85 98.76 C108.33 98.76 108.02 99.32 107.92 100.45 C107.35 101.28 106.61 101.82 105.68 102.07 L103.98 102.54 C103.42 102.74 103.01 103.21 102.75 103.93 C102.49 104.65 101.98 105.3 101.21 105.89 C100.43 106.48 99.92 106.78 99.66 106.78 C98.22 106.78 97.5 105.98 97.5 104.39 L98.12 100.76 Z M160.46 89.58 L161.61 89.27 L162.08 88.26 C164.6 86.77 166.4 85.36 167.48 84.02 C167.58 83.82 167.81 83.61 168.17 83.4 C168.53 83.2 168.92 82.84 169.33 82.32 C171.23 80.42 173.5 79.47 176.12 79.47 C179.2 79.47 180.85 81.35 181.06 85.1 L181.52 86.26 C181.93 86.98 182.51 88.44 183.25 90.66 C184 92.87 184.37 94.23 184.37 94.75 C184.37 96.13 183.94 97.52 183.06 98.91 C182.34 99.27 180.62 101.2 177.89 104.7 L177.12 105.24 C176.71 106.16 176.17 107.09 175.5 108.01 C174.47 108.37 173.96 108.76 173.96 109.17 L173.96 110.56 C173.96 110.66 173.84 110.87 173.61 111.18 C173.38 111.49 173.06 112.08 172.65 112.95 L172.03 113.88 C171.82 114.08 171.62 114.51 171.41 115.15 C171.21 115.79 170.91 116.37 170.53 116.89 C170.14 117.4 169.95 117.81 169.95 118.12 C169.95 118.89 170.95 119.28 172.96 119.28 C173.06 119.28 173.44 119.12 174.11 118.82 L175.19 119.12 C175.3 119.12 175.55 118.96 175.96 118.62 C176.38 118.29 177.01 118.02 177.85 117.81 C178.7 117.61 179.45 117.3 180.09 116.89 C180.73 116.48 181.51 116.12 182.41 115.81 C183.31 115.5 184.17 115 184.99 114.3 C185.81 113.61 186.62 113.11 187.42 112.8 C188.22 112.49 188.96 112.01 189.66 111.37 C190.35 110.73 191.14 110.12 192.01 109.56 C192.88 108.99 194.27 107.76 196.18 105.85 C197.41 104.88 198.26 104.34 198.72 104.23 C198.82 104.23 199.27 103.55 200.07 102.19 C200.87 100.83 201.78 100.15 202.81 100.15 C203.89 100.15 204.43 100.66 204.43 101.69 C204.43 102.25 204.17 102.79 203.66 103.31 L203.66 103.77 L203.81 105.01 C203.92 105.16 203.97 105.39 203.97 105.7 C203.97 105.91 203.77 106.21 203.39 106.63 C203 107.04 202.73 107.56 202.58 108.21 C202.42 108.85 201.94 109.27 201.11 109.48 C200.8 110.61 200.41 111.25 199.92 111.41 C199.43 111.56 198.75 112.08 197.87 112.95 C197 113.83 195.76 114.86 194.17 116.04 C192.58 117.22 191.48 118.13 190.89 118.78 C190.3 119.42 189.9 119.74 189.7 119.74 C189.59 119.74 189.39 119.64 189.08 119.43 C188.77 119.23 188.57 119.12 188.46 119.12 C188.15 119.12 187.95 119.48 187.85 120.2 L187.54 120.98 C186.87 121.39 186.48 121.59 186.38 121.59 L185.92 121.44 L185.61 121.44 C184.99 121.44 184.68 121.67 184.68 122.13 L185.15 122.9 L185.15 123.06 C185.15 123.78 184.73 124.14 183.91 124.14 C183.35 124.14 181.7 125.09 178.98 126.99 L176.74 127.46 L174.89 128.46 C174.27 128.1 173.88 127.92 173.73 127.92 L172.5 128.3 L170.26 128.46 C170.21 128.46 169.27 127.94 167.44 126.92 C165.62 125.89 164.53 124.86 164.17 123.83 C163.81 122.8 163.34 121.76 162.78 120.71 C162.21 119.65 161.93 118.92 161.93 118.51 C161.93 116.04 162.13 114.28 162.55 113.22 C162.96 112.17 163.21 111.38 163.32 110.87 C163.42 110.35 163.72 109.8 164.2 109.21 C164.69 108.62 165.09 107.65 165.4 106.32 C166.89 103.33 167.92 101.51 168.49 100.84 C169.05 100.17 169.49 99.35 169.8 98.37 L170.8 96.98 C170.9 96.88 171.06 96.48 171.26 95.79 C171.47 95.09 171.73 94.69 172.03 94.59 C172.45 93.87 172.65 93.41 172.65 93.2 C172.65 91.71 171.98 90.96 170.65 90.96 C170.39 90.96 170.11 91.23 169.8 91.77 C169.49 92.31 168.78 92.84 167.68 93.36 C166.57 93.87 165.89 94.26 165.63 94.51 C165.37 94.77 164.82 95.09 163.97 95.48 C163.12 95.86 162.39 96.47 161.77 97.29 L160.46 97.91 C160.05 98.89 159.69 99.43 159.38 99.53 C159.07 99.63 158.12 99.89 156.53 100.3 C156.42 100.35 156.17 100.66 155.75 101.23 C155.34 101.79 154.75 102.07 153.98 102.07 C153.36 102.69 152.74 103.41 152.13 104.23 C151.92 104.23 151.38 104.44 150.51 104.85 L148.96 105.24 C148.55 105.55 148.1 106.03 147.61 106.7 C147.12 107.37 146.21 107.71 144.87 107.71 C144.1 107.71 143.71 107.09 143.71 105.85 C143.71 103.33 144.6 101.33 146.38 99.84 C148.15 98.35 149.45 97.55 150.27 97.45 C151.1 97.34 151.61 97.03 151.82 96.52 C152.02 96.01 152.52 95.58 153.32 95.25 C154.12 94.91 155.04 94.17 156.1 93.01 C157.15 91.85 158.3 91.07 159.53 90.66 Z M214.86 90.19 L215.94 88.26 C216.25 87.8 216.65 87.33 217.14 86.84 C217.63 86.35 218.16 85.09 218.73 83.06 C219.29 81.03 219.92 79.62 220.62 78.85 C221.31 78.08 222.33 77.7 223.67 77.7 C224.44 77.7 225.46 78.07 226.72 78.81 C227.98 79.56 229.21 81.81 230.42 85.56 C231.63 89.32 232.24 91.97 232.24 93.51 C232.24 94.13 232.42 94.91 232.78 95.86 C233.14 96.82 233.37 97.55 233.47 98.06 C233.06 98.94 232.86 99.43 232.86 99.53 L233.01 102.69 L232.09 105.24 L232.09 107.09 C231.47 108.12 231.16 108.76 231.16 109.02 C231.16 109.33 231.26 109.63 231.47 109.94 C233.88 108.91 235.35 108.08 235.86 107.44 C236.38 106.79 236.88 106.39 237.36 106.24 C237.85 106.09 238.66 105.42 239.79 104.23 L241.25 103.46 C241.77 102.85 242.2 102.29 242.56 101.8 C242.92 101.32 243.35 100.97 243.83 100.76 C244.32 100.56 244.9 100.2 245.57 99.68 C246.23 99.17 247.21 98.58 248.49 97.91 L249.26 96.98 C250.03 96.11 250.94 95.41 252 94.9 C253.05 94.39 253.63 94.13 253.73 94.13 C254.09 94.13 254.46 94.6 254.85 95.56 C255.23 96.51 255.42 97.45 255.42 98.37 C255.42 99.25 254.92 100.11 253.92 100.96 C252.92 101.8 252.24 102.43 251.88 102.85 C251.52 103.26 250.7 103.62 249.41 103.93 C249.31 103.98 248.46 105.03 246.87 107.09 L245.33 108.01 L244.56 109.02 C244.45 109.22 243.76 109.43 242.48 109.63 C242.43 109.63 242.31 109.89 242.13 110.41 C241.95 110.92 241.4 111.28 240.47 111.49 C238.62 113.18 237.67 114.14 237.62 114.34 L236 114.65 C235.69 115.63 235.44 116.22 235.23 116.42 C234 116.73 233.3 117.25 233.15 117.97 C233 118.07 232.74 118.17 232.38 118.28 L232.07 118.51 C230.89 119.43 229.73 120 228.6 120.2 L226.83 120.67 L226.21 121.59 C226.21 121.85 225.59 122.18 224.33 122.6 C223.07 123.01 222.13 123.52 221.51 124.14 L220.2 125.14 C218.61 125.76 217.61 126.32 217.2 126.84 L216.12 126.84 C215.4 126.84 214.27 127.37 212.73 128.42 C211.19 129.47 209.95 130 209.03 130 C206.05 130 204.01 129.63 202.9 128.88 C201.8 128.14 200.88 127.21 200.16 126.11 C199.45 125 198.79 124.11 198.2 123.44 C197.61 122.78 197.31 122.24 197.31 121.82 C197.31 121.46 197.56 121.1 198.05 120.74 C198.53 120.38 199.06 119.65 199.62 118.55 C200.19 117.44 201.63 116.73 203.94 116.42 C204.04 116.42 204.42 116.27 205.06 115.96 C205.7 115.65 206.23 115.5 206.64 115.5 C207.15 115.5 207.79 115.96 208.57 116.89 C208.57 116.99 208.67 117.04 208.87 117.04 L210.11 116.89 C210.67 117.3 211.06 117.5 211.26 117.5 C212.5 117.5 213.81 116.89 215.19 115.65 L215.5 115.5 L216.12 115.5 C216.27 115.5 216.53 115.06 216.89 114.19 L218.2 111.49 L220.9 108.01 L220.9 107.24 C220.9 107.09 221.05 106.63 221.36 105.85 L221.36 104.7 C221.36 104.23 221.67 103.94 222.28 103.81 C222.9 103.68 223.21 103.36 223.21 102.85 L223.06 102.23 C222.64 101.66 222.44 101.23 222.44 100.92 L223.21 99.37 L223.06 97.75 L223.36 97.14 C223.16 96.42 223.06 96.01 223.06 95.9 L223.36 93.97 C223.36 93.92 223.22 93.43 222.94 92.51 C222.66 91.58 222.44 91.12 222.28 91.12 C221.97 91.12 221 91.92 219.35 93.51 C217.7 95.11 216.72 96.24 216.41 96.91 C216.1 97.57 215.45 98.18 214.44 98.72 C213.44 99.26 212.76 99.86 212.4 100.53 C212.03 101.2 211.6 101.59 211.08 101.69 L205.91 105.85 L200.27 110.02 C199.86 110.48 199.6 110.71 199.5 110.71 C197.59 110.71 196.64 109.66 196.64 107.55 C196.64 106.88 197.02 105.67 197.8 103.93 C198.16 103.72 198.43 103.57 198.61 103.46 C198.79 103.36 198.88 103.28 198.88 103.23 C198.88 103.18 198.83 103.15 198.72 103.15 L199.19 103.46 L199.34 103.46 C201.25 102.18 202.48 101.43 203.05 101.23 C203.61 101.02 204.13 100.45 204.59 99.53 L207.84 97.21 C208.66 96.6 209.92 95.47 211.62 93.82 C213.32 92.17 214.4 90.96 214.86 90.19 Z M267.34 57.33 L268.42 57.02 L269.2 56.25 L269.35 56.25 L270.04 56.56 L270.2 56.56 C271.43 56.56 272.53 56.31 273.49 55.82 C274.45 55.34 275.25 54.99 275.9 54.78 C276.55 54.58 276.95 54.42 277.11 54.32 C277.27 54.22 277.4 54.17 277.5 54.17 L278.75 54.32 C279.16 54.32 279.71 53.59 280.4 52.12 C281.1 50.65 281.88 49.59 282.76 48.92 C283.63 48.25 284.5 46.99 285.38 45.14 C285.58 44.88 285.81 44.48 286.07 43.94 C286.33 43.4 286.53 43.13 286.69 43.13 C287.46 43.13 288.08 42.64 288.54 41.67 C290.08 39.87 291.34 38.97 292.32 38.97 C293.6 38.97 294.5 40.2 295.01 42.67 L295.79 45.6 C295.79 45.65 295.66 46.03 295.4 46.72 C295.14 47.41 295.03 48.11 295.05 48.8 C295.08 49.5 295.05 49.96 294.98 50.19 C294.9 50.42 294.86 50.69 294.86 51 C294.86 51.41 295.3 51.62 296.17 51.62 C296.48 51.62 297.05 51.41 297.87 51 L298.33 50.85 C298.85 51.16 299.28 51.31 299.64 51.31 C299.75 51.31 300.48 51.05 301.84 50.54 C303.2 50.02 304.07 49.74 304.43 49.69 C304.79 49.64 305.4 49.43 306.28 49.07 L307.2 49.07 L307.82 49.3 C308.03 49.3 308.45 49.09 309.09 48.65 C309.74 48.21 310.96 47.94 312.76 47.84 L313.84 47.38 L314.15 47.38 C315.84 47.38 316.69 48.12 316.69 49.61 C316.69 49.92 316.45 50.46 315.96 51.23 C315.47 52 315.07 52.88 314.76 53.86 L311.22 58.33 C310.03 59.87 308.85 60.65 307.67 60.65 C307.46 60.65 306.82 59.95 305.74 58.56 C305.74 58.46 305.63 58.41 305.43 58.41 C304.91 58.41 304.37 58.51 303.81 58.72 C303.24 58.92 302.78 59.03 302.42 59.03 C302.27 59.03 300.9 59.41 298.33 60.18 L296.48 60.49 C296.27 60.49 295.79 60.59 295.01 60.8 L291.08 61.57 C289.74 62.24 288.68 63.5 287.91 65.35 C287.91 65.45 287.65 65.69 287.14 66.05 L283.66 72.37 C282.53 72.68 281.78 73.35 281.42 74.38 L281.11 74.84 C280.55 74.94 280.03 75.27 279.57 75.81 C279.1 76.35 278.67 76.77 278.25 77.08 L276.86 79.16 C276.3 79.88 275.73 80.67 275.16 81.51 C274.6 82.36 274.18 83.26 273.93 84.21 C273.67 85.17 273.46 85.72 273.31 85.87 C273.15 86.03 273.07 86.31 273.07 86.72 L272.84 87.34 C272.22 87.96 271.92 88.65 271.92 89.42 L272.23 90.66 C271.5 93.12 271.14 94.44 271.14 94.59 C271.14 94.69 271.19 94.98 271.3 95.44 L271.3 95.9 C271.3 97.03 270.88 98.45 270.06 100.15 L270.22 101.38 L269.75 104.85 C269.75 105.31 269.91 106.16 270.22 107.4 C270.01 107.6 269.91 107.76 269.91 107.86 C269.91 109.3 270.67 110.88 272.19 112.6 C273.71 114.33 274.47 117.02 274.47 120.67 C274.47 120.98 274.39 121.43 274.23 122.02 C274.08 122.61 273.98 123.25 273.92 123.95 C273.87 124.64 273.47 125.32 272.73 125.99 C271.98 126.66 271.35 126.99 270.83 126.99 C268.1 126.99 266.07 125.01 264.73 121.05 C263.39 117.09 262.72 114.55 262.72 113.42 L262.87 110.41 L262.41 108.86 L262.87 102.07 L262.56 100.45 L264.34 93.82 L264.34 91.43 C264.34 91.32 264.7 90.91 265.42 90.19 C265.42 90.09 265.32 90.04 265.11 90.04 C264.8 90.04 264.39 90.35 263.88 90.96 C263.36 91.58 262.72 92.17 261.95 92.74 L261.33 93.82 C261.22 93.72 261.02 93.61 260.71 93.51 C260.45 93.61 259.6 94.82 258.16 97.14 C257.08 97.29 256.23 97.91 255.61 98.99 C254.99 100.07 254.14 100.61 253.06 100.61 L252.75 100.76 C252.54 102.25 251.82 103 250.58 103 L250.28 103.15 C249.5 104.9 248.7 105.75 247.88 105.7 C247.36 107.24 246.1 108.3 244.09 108.86 C243.78 109.48 243.33 109.94 242.74 110.25 C242.15 110.56 241.72 110.84 241.46 111.1 C241.21 111.36 240.97 111.49 240.77 111.49 C240.1 111.49 239.76 110.77 239.76 109.33 C239.76 108.91 239.93 108.46 240.27 107.98 C240.6 107.49 240.77 107.14 240.77 106.93 C240.77 106.83 240.51 106.52 240 106.01 C240 104.41 240.41 103.41 241.23 103 C242.05 102.59 242.67 102 243.08 101.23 C243.34 100.61 243.86 100.17 244.63 99.91 C245.4 99.66 245.79 99.32 245.79 98.91 C245.79 98.55 246.46 97.83 247.8 96.75 C249.14 95.67 250.11 94.73 250.73 93.94 C251.35 93.14 251.86 92.74 252.28 92.74 L252.58 92.43 C252.69 91.14 253.18 90.5 254.05 90.5 L254.82 90.04 L254.98 89.42 L255.44 89.11 L256.06 89.11 L256.45 88.8 C256.55 87.52 257.15 86.52 258.26 85.8 C259.37 85.08 261.39 83.06 264.33 79.74 C267.26 76.42 268.91 74.3 269.27 73.38 C269.63 72.45 270.29 71.2 271.24 69.63 C272.19 68.06 272.72 66.59 272.82 65.2 C272.72 64.99 272.56 64.79 272.36 64.58 L269.04 66.2 C269.04 66.05 268.53 65.81 267.5 65.51 C266.73 65.97 266.16 66.43 265.8 66.89 C265.44 67.36 265.16 67.59 264.95 67.59 L263.87 67.43 L260.48 67.82 C257.44 68.08 255.15 68.69 253.61 69.67 L250.45 70.6 L249.75 70.6 C249.34 70.6 248.73 70.85 247.9 71.37 L246.13 71.21 C244.48 72.09 243.27 72.53 242.5 72.53 C242.4 72.53 242.09 72.47 241.58 72.37 L233.71 74.53 C233.09 74.74 231.7 75.79 229.54 77.7 L228.92 77.85 C228.41 77.85 227.81 77.27 227.11 76.11 C226.42 74.96 226.07 73.92 226.07 72.99 C226.07 67.9 230.44 64.94 239.19 64.12 L242.35 62.88 L242.5 62.88 L243.35 63.19 L243.66 63.19 C243.97 63.19 244.46 63 245.13 62.61 C245.79 62.23 247.29 61.75 249.6 61.19 L252.76 60.34 L253.77 60.49 C254.28 60.49 254.86 60.29 255.5 59.87 C256.14 59.46 257.12 59.17 258.43 58.99 C259.75 58.81 260.66 58.61 261.17 58.41 L262.41 58.1 C262.61 58.1 263.04 57.92 263.68 57.56 C264.32 57.2 265.16 57.02 266.19 57.02 C266.34 57.02 266.73 57.12 267.34 57.33 Z M342.7 77.39 L339.92 76.77 C338.43 76.51 337.68 74.97 337.68 72.14 C337.68 69.93 339.44 68.04 342.96 66.47 C346.48 64.9 348.61 63.89 349.36 63.42 C350.1 62.96 351.04 62.73 352.17 62.73 C353.04 61.96 354.36 61.19 356.14 60.41 C357.91 59.64 359.19 58.99 359.99 58.45 C360.78 57.91 361.53 57.53 362.22 57.33 C362.92 57.12 363.52 56.71 364.03 56.09 C364.7 55.89 365.27 55.67 365.73 55.44 C366.19 55.21 367.18 54.86 368.69 54.4 C370.21 53.93 371.12 53.55 371.43 53.24 L373.2 52.08 C374.69 52.03 375.6 51.8 375.94 51.39 C376.27 50.98 377.26 50.54 378.9 50.08 L381.21 49.46 C381.52 49.46 381.91 49.72 382.37 50.23 C382.57 49.05 383.04 48.46 383.76 48.46 L386.14 48.61 C387.07 47.99 387.63 47.68 387.84 47.68 L388.3 47.38 C389.28 47.48 390 47.58 390.46 47.68 C390.92 47.79 391.36 48.15 391.77 48.76 C392.24 48.04 392.67 47.68 393.08 47.68 C393.91 47.68 394.86 48.04 395.94 48.76 L397.17 48.61 C398.46 48.61 399.15 49.01 399.26 49.81 C399.36 50.6 399.59 51.23 399.95 51.7 C400.31 52.16 400.64 52.83 400.95 53.7 L401.57 54.63 C402.03 54.94 402.26 55.3 402.26 55.71 C402.26 56.79 401.62 58.33 400.34 60.34 L398.25 64.43 C397.64 65.4 396.97 66.25 396.25 66.97 L395.63 68.21 C394.86 69.08 394.24 69.7 393.78 70.06 C393.32 70.42 393.03 71.5 392.93 73.3 C392.72 73.92 392.43 74.37 392.04 74.65 C391.66 74.93 391.36 75.28 391.16 75.69 C390.13 75.95 389.41 76.51 389 77.39 L385.14 84.18 C384.98 84.54 384.43 84.95 383.48 85.41 C382.53 85.87 381.56 87.57 380.59 90.5 C381.15 89.94 381.74 89.42 382.36 88.96 L383.75 87.03 L390.54 80.55 C391.89 79.26 392.76 78.43 393.18 78.04 C393.59 77.66 393.97 77.44 394.34 77.39 C394.49 76.98 394.98 76.49 395.81 75.92 C396.63 75.36 397.41 74.64 398.13 73.76 L399.13 72.83 L399.6 71.99 C400.01 71.06 400.58 70.6 401.3 70.6 L401.92 69.98 C402.18 69 402.82 68.51 403.86 68.51 C404.06 68.31 404.19 67.87 404.24 67.2 C404.29 66.53 404.76 66.2 405.64 66.2 L406.25 66.2 L406.41 66.05 C406.51 65.58 406.69 65.27 406.95 65.12 C407.21 64.97 407.44 64.63 407.65 64.12 C407.65 64.37 407.74 64.4 407.92 64.19 C408.1 63.99 408.42 63.47 408.89 62.65 C409.35 61.83 409.87 61.31 410.43 61.11 C411 60.9 411.36 60.54 411.52 60.03 C411.67 59.51 412.07 59.09 412.72 58.76 C413.36 58.42 413.92 58.07 414.38 57.71 C414.85 57.35 415.26 57.17 415.62 57.17 C415.83 57.17 416.14 57.38 416.55 57.79 C416.65 56.2 418.46 54.63 421.97 53.08 L426.06 50.08 C427.19 49.36 428.07 48.91 428.69 48.73 C429.3 48.55 430.28 48.03 431.62 47.18 C432.95 46.33 434.03 45.83 434.86 45.68 C435.68 45.52 437.02 45.45 438.87 45.45 L440.41 45.76 C440.82 45.55 441.36 45.45 442.03 45.45 C443.32 45.45 445.03 46.17 447.16 47.61 C449.3 49.05 450.36 51.13 450.36 53.86 C450.36 55.86 449.57 57.97 447.97 60.18 C447.66 60.49 447.25 61.25 446.74 62.46 C446.22 63.67 445.75 64.64 445.31 65.39 C444.87 66.14 444.53 66.96 444.27 67.86 C444.01 68.76 443.28 69.81 442.07 71.02 C440.86 72.23 440.08 73.76 439.72 75.61 C439.67 75.87 439.46 76.23 439.1 76.69 C438.74 77.16 438.45 77.76 438.21 78.51 C437.98 79.25 437.51 80.1 436.79 81.05 C436.07 82 435.6 82.94 435.4 83.87 C435.4 84.18 434.6 85.23 433.01 87.03 L430.46 93.51 C429.89 93.92 429.17 95.21 428.3 97.37 L425.6 103.46 C424.83 104.75 424.29 105.55 423.98 105.85 L423.98 107.71 C423.36 108.58 422.98 109.78 422.82 111.29 C422.67 112.81 422.54 113.84 422.44 114.38 C422.33 114.92 422.28 115.29 422.28 115.5 C422.28 116.53 422.8 117.04 423.83 117.04 C425.32 117.04 426.42 116.67 427.14 115.92 C427.86 115.18 428.44 114.68 428.88 114.42 C429.32 114.16 430.1 113.47 431.24 112.33 L436.33 108.17 C437.67 107.14 438.57 106.43 439.03 106.05 C439.49 105.66 440.22 105.44 441.19 105.39 C443.25 101.28 445.16 99.22 446.91 99.22 C448.6 99.22 449.45 99.68 449.45 100.61 L448.84 101.69 L449.3 103.15 L449.3 103.46 L448.84 106.01 C448.73 106.32 448.14 106.83 447.06 107.55 C446.96 108.27 446.51 108.88 445.71 109.36 C444.92 109.85 444.21 110.41 443.59 111.02 L442.2 110.87 C441.84 111.85 441.33 112.62 440.66 113.18 L438.43 114.88 C437.66 115.45 436.72 116.12 435.61 116.89 C434.51 117.66 433.29 118.28 431.95 118.74 C430.61 119.2 429.72 119.66 429.29 120.13 C428.85 120.59 428.35 120.87 427.78 120.98 L426.55 120.98 L424.78 121.44 L420.38 121.98 C419.92 121.98 417.99 120.95 414.6 118.89 C411.2 116.84 409.51 113.31 409.51 108.32 C409.51 106.68 409.82 105.37 410.43 104.39 L410.9 103.46 C411 103.15 411.28 102.61 411.74 101.84 C412.21 101.07 412.62 100.2 412.98 99.22 C413.9 98.76 414.37 98.37 414.37 98.06 C414.37 97.96 414.32 97.83 414.21 97.68 C414.11 97.52 414.06 97.34 414.06 97.14 C414.06 96.73 414.26 96.21 414.68 95.59 L414.68 94.13 L419.15 87.18 C419.15 87.13 419.75 85.83 420.96 83.29 C422.17 80.74 422.91 79.37 423.16 79.16 C423.42 78.96 423.57 78.74 423.63 78.51 C423.68 78.27 423.78 77.98 423.93 77.62 C424.09 77.26 424.19 76.85 424.24 76.38 C424.29 75.92 424.69 75.27 425.44 74.42 C426.18 73.57 426.87 72.6 427.48 71.52 L428.25 70.44 C428.82 69.72 429.26 68.94 429.57 68.09 C429.87 67.24 430.18 66.64 430.49 66.28 C433.11 63.19 434.58 60.36 434.89 57.79 C435.25 57.17 435.63 56.62 436.05 56.13 C436.46 55.64 436.66 55.09 436.66 54.47 L436.2 53.39 C434.91 53.81 433.62 54.44 432.3 55.28 C430.99 56.13 429.6 56.81 428.14 57.33 C426.67 57.84 425.64 58.34 425.05 58.83 C424.46 59.32 423.01 60.23 420.69 61.57 L419.61 62.88 C419.61 62.99 419.51 63.09 419.3 63.19 L417.84 63.04 C417.63 63.14 417.44 63.46 417.26 64 C417.08 64.54 416.5 64.94 415.52 65.2 C415.37 65.25 415.04 65.84 414.52 66.97 C414.11 67.28 413.06 67.64 411.36 68.05 C410.74 68.57 410.17 69.3 409.66 70.25 C409.14 71.2 408.29 71.87 407.1 72.26 C405.92 72.64 405.22 72.94 405.02 73.14 C404.61 75.51 403.63 76.91 402.08 77.35 C400.54 77.79 399.56 78.69 399.14 80.05 C398.73 81.41 397.96 82.22 396.82 82.48 C396.41 82.79 395.76 83.52 394.85 84.68 C393.95 85.83 392.84 86.88 391.53 87.8 C390.22 88.73 389.08 89.86 388.13 91.2 C387.18 92.53 386.31 93.45 385.54 93.94 C384.77 94.42 383.17 96.01 380.75 98.68 C378.33 101.35 376.96 102.95 376.65 103.46 C376.34 103.98 375.21 105.24 373.25 107.24 C373.05 107.24 372.56 107.35 371.78 107.55 C371.58 107.96 371.34 108.3 371.09 108.55 L368 112.1 C366.71 113.54 365.19 115.5 363.44 117.97 C362.92 118.22 362.48 118.4 362.12 118.51 C361.92 118.71 361.76 119.12 361.66 119.74 L361.19 120.67 L359.49 121.82 C358.1 124.96 356.14 126.53 353.62 126.53 C352.23 126.53 350.95 125.46 349.8 123.33 C348.64 121.19 348.06 120.1 348.06 120.05 C348.06 117.12 348.28 115.22 348.71 114.34 C349.15 113.47 349.73 112.64 350.45 111.87 C350.55 111.87 350.78 111.4 351.14 110.44 C351.51 109.49 351.96 108.7 352.5 108.05 C353.04 107.41 353.64 106.43 354.31 105.12 C354.98 103.81 355.6 103.15 356.16 103.15 C356.27 103.15 356.47 103.21 356.78 103.31 L357.09 103 L356.78 101.23 C356.99 100.71 357.25 100.3 357.56 99.99 C357.86 99.68 358.17 99.1 358.48 98.26 C358.79 97.41 359.43 96.78 360.41 96.37 C360.41 95.95 360.93 95.11 361.96 93.82 C362.37 92.84 362.95 91.7 363.7 90.39 C364.44 89.07 365.25 88.26 366.13 87.96 L366.13 87.34 C366.13 86.72 366.8 85.72 368.14 84.33 C368.75 84.12 369.18 83.61 369.41 82.79 C369.64 81.96 370.12 81.32 370.84 80.86 C371.61 79.83 372.46 78.65 373.39 77.31 L376.4 73.45 C377.02 72.78 377.48 72.35 377.79 72.14 C377.79 70.6 378.28 69.83 379.26 69.83 C379.36 69.83 379.57 69.88 379.87 69.98 C380.08 68.9 380.39 68.13 380.8 67.67 C381.21 67.2 381.47 66.65 381.57 66.01 C381.67 65.36 382.57 64.79 384.27 64.27 L383.96 63.19 C384.79 61.39 385.69 60.23 386.66 59.72 C386.82 59.57 387.28 58.46 388.05 56.4 C388.05 56.09 387.54 55.76 386.51 55.4 C386.2 55.76 385.94 55.94 385.74 55.94 L383.19 55.71 L380.8 56.56 C379.98 56.56 379.51 56.61 379.41 56.71 L378.41 57.02 C377.43 57.38 376.81 57.74 376.56 58.1 L376.25 58.1 L375.09 57.79 L374.78 57.79 L371.31 60.03 L371 60.03 L368.46 59.72 C367.94 60.54 366.53 61.16 364.22 61.57 L363.44 62.88 L361.67 62.73 C361.16 63.04 360.67 63.45 360.21 63.96 C359.74 64.48 359.23 64.79 358.66 64.89 C354.81 66.59 352.18 68.21 350.79 69.75 C350.38 70.21 349.99 70.6 349.6 70.91 C349.21 71.21 348.82 71.75 348.4 72.53 L347.48 73.92 C347.17 74.74 346.75 75.2 346.21 75.3 C345.67 75.41 345.06 75.78 344.39 76.42 C343.73 77.07 343.16 77.39 342.7 77.39 Z M478.85 61.73 L478.38 58.72 L478.38 58.25 C478.38 55.84 479.21 54.5 480.85 54.24 C481.21 54.19 482.29 53.86 484.09 53.24 C485.02 53.44 485.98 54.26 486.99 55.67 C487.99 57.08 488.49 58.33 488.49 59.41 C488.49 59.51 488.41 59.75 488.26 60.11 C488.1 60.47 488 61.15 487.95 62.15 C487.9 63.15 487.4 64.03 486.45 64.77 C485.49 65.52 484.48 65.89 483.4 65.89 C482.68 65.89 481.77 65.39 480.66 64.39 C479.55 63.38 478.95 62.5 478.85 61.73 Z M445.52 100.3 L446.76 99.22 L447.22 99.22 C447.58 99.22 448.12 98.83 448.84 98.06 L449.61 97.75 C450.64 96.21 451.54 95.31 452.31 95.05 L453.55 94.13 C453.76 93.92 454.05 93.74 454.44 93.59 C454.83 93.43 455.44 92.93 456.29 92.08 C457.14 91.23 457.82 90.81 458.34 90.81 C458.85 90.81 459.27 90.86 459.58 90.96 C459.88 90.35 460.5 89.74 461.43 89.15 C462.36 88.56 463.1 87.85 463.67 87.03 L464.67 86.57 C465.5 86.16 466.23 85.63 466.87 84.99 C467.52 84.34 468.35 84.02 469.38 84.02 C470.88 84.02 472.43 84.78 474.05 86.3 C475.67 87.81 476.48 89.27 476.48 90.66 L475.17 96.67 C474.3 101.1 473.32 103.41 472.24 103.62 L471.93 105.24 C471.21 105.75 470.85 106.16 470.85 106.47 L471.32 108.32 C471.32 108.58 471.03 108.97 470.47 109.48 C470.36 109.48 470.31 109.63 470.31 109.94 L470.31 113.11 C470.31 113.67 469.95 114.14 469.23 114.5 C469.33 114.6 469.49 114.7 469.69 114.8 C470 114.5 470.7 114.34 471.78 114.34 L473.01 114.5 L474.71 112.8 C475.07 112.69 475.57 112.45 476.21 112.06 C476.85 111.68 477.94 111.18 479.48 110.56 L489.58 102.85 C490.96 101.46 492.02 100.76 492.73 100.76 C493.51 100.76 493.89 101.25 493.89 102.23 C493.89 103.36 493.67 104.3 493.23 105.04 C492.8 105.79 492.4 106.69 492.04 107.74 C491.68 108.8 491.25 109.53 490.77 109.94 C490.28 110.35 489.88 110.8 489.57 111.29 C489.26 111.78 488.43 112.49 487.06 113.42 C485.7 114.34 484.54 115.28 483.59 116.23 C482.64 117.18 481.86 117.86 481.24 118.28 L477.92 120.67 L477.46 121.44 C477.36 121.54 476.88 121.76 476.03 122.09 C475.19 122.43 474.43 122.85 473.76 123.37 L472.37 124.14 C472.06 124.34 471.56 124.47 470.87 124.52 C470.17 124.58 469.57 124.87 469.05 125.41 C468.54 125.95 468.13 126.22 467.82 126.22 L466.66 126.07 L465.12 126.53 C464.25 126.53 463.18 126 461.92 124.95 C460.66 123.89 460.03 122.78 460.03 121.59 L460.03 121.13 L460.18 120.05 C460.18 119.84 460.03 119.32 459.72 118.47 C459.41 117.62 459.26 117.14 459.26 117.04 L459.41 115.96 L459.26 115.5 C459.26 114.11 459.36 113.24 459.57 112.88 C459.77 112.51 459.93 112.01 460.03 111.37 C460.13 110.73 460.23 110.2 460.34 109.79 L460.72 107.86 C460.93 107.24 461.19 106.83 461.49 106.63 C461.6 106.21 461.8 105.52 462.11 104.54 L462.42 103.15 L463.19 102.07 C463.6 101.66 463.85 101.11 463.92 100.42 C464 99.72 464.27 98.99 464.73 98.22 C465.2 97.45 465.43 96.98 465.43 96.83 C465.43 96.21 465.12 95.9 464.5 95.9 C464.3 95.9 463.65 96.31 462.57 97.14 L461.18 96.67 C461.08 96.67 460.8 96.93 460.34 97.45 C460.34 97.65 460.1 97.81 459.64 97.91 C459.18 98.01 458.74 98.4 458.33 99.07 L457.71 99.22 L456.71 98.76 L456.4 98.76 C455.89 98.76 455.58 99.32 455.47 100.45 C454.91 101.28 454.16 101.82 453.24 102.07 L451.54 102.54 C450.97 102.74 450.56 103.21 450.3 103.93 C450.05 104.65 449.53 105.3 448.76 105.89 C447.99 106.48 447.47 106.78 447.22 106.78 C445.78 106.78 445.06 105.98 445.06 104.39 L445.67 100.76 Z M489.76 173.75 L488.53 174.59 C488.01 174.9 487.47 175.06 486.91 175.06 C485.62 175.06 484.38 174.21 483.17 172.51 C481.96 170.81 481.35 169.06 481.35 167.26 C481.35 164.02 481.68 161.72 482.32 160.36 C482.96 159 483.33 157.98 483.44 157.31 C483.44 157.26 483.99 155.99 485.1 153.49 C486.2 151 487.24 149.11 488.22 147.82 C489.2 146.54 490.02 145.33 490.69 144.2 L491 143.58 C491.77 142.35 492.51 141.5 493.23 141.03 C493.23 140.73 494.22 139.66 496.21 137.83 C498.19 136.01 500.05 134.45 501.8 133.17 L502.57 132.08 C503.8 131.31 504.52 130.93 504.73 130.93 L509.2 129.69 C509.62 129.28 510.62 128.48 512.21 127.3 L512.83 127.3 L514.91 126.68 C516.05 126.17 517.8 125.69 520.19 125.26 C522.57 124.82 523.92 124.31 524.25 123.71 C524.57 123.12 524.85 122.57 525.07 122.06 C525.3 121.54 525.86 120.46 526.76 118.82 C526.97 117.94 527.15 117.25 527.3 116.73 C527.45 116.22 527.62 115.91 527.8 115.81 C527.98 115.7 528.28 115.2 528.69 114.3 C529.1 113.4 529.51 112.64 529.92 112.03 C530.03 112.03 530.08 111.97 530.08 111.87 L529.62 110.56 C530.03 109.33 530.45 108.57 530.89 108.28 C531.33 108 531.54 107.81 531.54 107.71 L531 106.32 L532.32 103.46 C532.32 103.26 532.21 103.15 532.01 103.15 C529.28 105.06 527.69 106.01 527.22 106.01 C526.97 106.37 526.4 106.99 525.53 107.86 C524.66 108.17 524.06 108.71 523.76 109.48 L523.14 109.63 L522.68 110.41 C522.68 110.51 522.5 110.64 522.14 110.79 C521.78 110.95 521.06 111.36 519.98 112.03 L519.06 111.87 C518.85 111.87 518.59 112.39 518.29 113.42 C517.41 114.44 516.58 115.07 515.78 115.31 C514.99 115.54 514.49 115.81 514.28 116.12 L513.66 116.89 L512.89 116.73 C511.82 116.73 511.28 117.14 511.28 117.97 C511.28 118.43 510.97 118.97 510.35 119.59 C509.94 119.59 509.43 119.74 508.81 120.05 L507.66 120.05 C507.14 121.18 506.22 121.88 504.88 122.13 L502.65 123.68 L501.34 124.14 C500.72 124.45 500.11 124.82 499.49 125.26 C498.87 125.69 497.82 125.96 496.33 126.07 C495.61 125.66 494.51 125.26 493.02 124.87 C491.53 124.49 490.47 121.98 489.85 117.35 L489.7 117.35 C489.29 117.35 488.84 117.5 488.35 117.81 C487.86 118.12 487.51 118.28 487.31 118.28 C486.07 118.28 485.46 117.76 485.46 116.73 C485.46 114.42 486.33 112.9 488.08 112.18 L490.01 109.79 L494.95 104.93 C498.4 101.48 500.72 99.27 501.9 98.29 C503.09 97.32 504.38 96.37 505.77 95.44 L509.71 92.82 C511.05 91.94 511.88 91.47 512.19 91.39 C512.5 91.31 512.82 91.14 513.16 90.89 C513.49 90.63 514.43 90.24 515.98 89.73 L517.37 89.11 C520.26 88.14 522.11 87.65 522.94 87.65 L524.02 87.8 C524.59 87.8 525.13 87.6 525.64 87.18 C526.37 87.18 527.47 86.62 528.97 85.49 L531.75 84.72 C532.53 84.46 533.17 84.33 533.69 84.33 L535.15 84.33 C536.23 84.33 536.94 85.18 537.27 86.88 C537.61 88.57 537.9 89.42 538.16 89.42 C538.26 89.42 538.57 89.04 539.09 88.26 L540.17 87.49 C540.94 86.98 541.43 86.72 541.63 86.72 C542.87 86.72 543.64 87.24 543.95 88.26 L543.95 88.42 L544.26 88.8 C544.72 91.27 544.95 92.79 544.95 93.36 C544.95 95.83 544.42 97.75 543.37 99.14 C542.31 100.53 541.68 101.51 541.48 102.07 C540.45 106.24 539.42 109.38 538.39 111.49 C538.14 112.05 537.52 113.54 536.54 115.96 L535.77 116.73 C535.56 116.84 535.46 116.99 535.46 117.2 L535.62 118.28 C534.74 119.66 534.3 120.77 534.3 121.59 C534.3 122.06 533.89 123.01 533.07 124.45 C533.17 124.55 533.62 124.82 534.42 125.26 C535.22 125.69 536.12 126.52 537.12 127.73 C538.12 128.93 538.62 129.85 538.62 130.46 C538.62 130.62 538.34 131.62 537.78 133.47 C535.92 134.86 534.35 135.56 533.07 135.56 C532.55 135.56 531.8 135.22 530.82 134.55 L530.36 134.71 L530.36 134.4 C529.69 134.25 529.16 134.05 528.77 133.82 C528.39 133.59 528.01 133.47 527.65 133.47 C527.24 133.47 527.04 133.68 527.04 134.09 C527.04 134.3 527.09 134.5 527.19 134.71 C526.88 134.97 526.47 135.35 525.95 135.87 C525.95 136.02 525.59 136.78 524.87 138.14 C524.15 139.5 523.5 140.42 522.94 140.88 C521.81 140.93 521.03 141.78 520.62 143.43 C520.21 145.07 519.72 146.13 519.16 146.59 L518.39 146.28 C516.64 149.78 514.89 152.3 513.14 153.84 C512.06 154.1 511.51 154.29 511.48 154.42 C511.45 154.55 511.4 154.88 511.33 155.42 C511.25 155.96 510.63 156.81 509.47 157.97 C508.32 159.13 507.64 159.7 507.43 159.7 L506.66 159.86 L506.2 160.32 C506.25 161.35 504.88 163 502.11 165.26 C500.62 166.08 499.82 166.65 499.72 166.96 C499.3 167.93 497.79 169.09 495.16 170.43 L493.7 171.74 C493.03 172.36 492.36 172.79 491.69 173.05 Z M516.23 109.48 L517.15 108.17 C517.46 107.76 517.99 107.45 518.73 107.24 C519.48 107.04 520.08 106.6 520.55 105.93 C521.78 104.18 523.25 102.9 524.95 102.07 L525.72 101.53 C526.49 100.04 527.18 99.23 527.8 99.1 C528.42 98.98 528.96 98.51 529.42 97.72 C529.88 96.92 530.11 96.26 530.11 95.75 C530.11 95.54 529.96 95.44 529.65 95.44 C528.93 95.44 528.3 95.65 527.76 96.06 C527.22 96.47 526.85 96.67 526.64 96.67 L525.1 96.52 C524.17 97.03 522.89 97.65 521.24 98.37 L519.85 99.53 C519.24 99.94 518.68 100.2 518.19 100.3 C517.71 100.4 517.33 100.72 517.08 101.26 C516.82 101.8 516.48 102.07 516.07 102.07 L515.46 102.38 C515.25 102.59 514.66 102.69 513.68 102.69 C513.17 103 512.64 103.44 512.1 104 C511.56 104.57 511.24 104.85 511.14 104.85 C509.95 106.14 508.94 106.93 508.09 107.24 C507.24 107.55 506.69 107.99 506.43 108.55 C505.45 108.81 504.63 109.39 503.96 110.29 C503.29 111.19 502.69 111.81 502.15 112.14 C501.61 112.48 501.13 112.9 500.72 113.42 L499.95 114.03 C499.64 114.24 499.22 114.92 498.68 116.08 C498.14 117.23 497.87 118.04 497.87 118.51 C497.87 118.82 498.05 118.97 498.41 118.97 C498.92 118.97 499.88 118.6 501.3 117.85 C502.71 117.11 503.63 116.53 504.04 116.12 C504.45 115.7 504.73 115.5 504.89 115.5 L507.82 115.65 C508.13 114.98 508.65 114.55 509.4 114.34 C510.15 114.14 510.72 113.7 511.14 113.03 C511.55 112.36 512.7 111.64 514.61 110.87 L515.46 109.48 Z M517.61 134.09 L515.29 134.4 C514.73 133.99 514.29 133.78 513.98 133.78 C513.77 133.78 513.62 133.94 513.52 134.25 C512.9 135.07 511.54 135.76 509.43 136.33 C507.32 136.89 505.89 137.47 505.15 138.06 C504.4 138.66 503.77 138.98 503.26 139.03 C502.74 139.08 502.48 139.18 502.48 139.34 C501.97 139.75 501.58 140.11 501.33 140.42 C500.81 140.62 500.3 140.94 499.78 141.38 C499.27 141.82 498.73 142.09 498.16 142.19 C497.24 144.2 496.57 145.2 496.16 145.2 C496.06 145.2 495.8 145.15 495.39 145.05 L495.23 145.05 C494.56 146.38 494.05 147.15 493.69 147.36 C493.33 147.57 493.02 147.86 492.76 148.25 C492.51 148.63 492 149.06 491.26 149.52 C490.51 149.98 490.01 150.77 489.75 151.87 C489.5 152.98 489.18 153.73 488.79 154.11 C488.4 154.5 488.16 155.36 488.06 156.7 L487.59 157.78 C487.44 158.08 487.22 158.97 486.94 160.44 C486.66 161.9 486.51 162.66 486.51 162.71 C486.51 163.43 486.82 164.08 487.44 164.64 C487.65 164.38 488.08 164.2 488.75 164.1 L493.3 162.25 C493.46 162.15 494.02 161.67 495 160.82 C495.98 159.97 496.84 159.42 497.59 159.16 C498.33 158.91 499.01 158.44 499.63 157.78 C500.04 157.16 500.54 156.64 501.13 156.23 C501.73 155.82 502.07 155.31 502.18 154.69 C503.36 153.66 504.44 152.7 505.42 151.8 C506.39 150.9 507.02 150.15 507.31 149.56 C507.59 148.97 508.04 148.47 508.66 148.05 L508.96 147.05 C509.07 147 509.29 146.94 509.62 146.86 C509.95 146.78 510.51 145.95 511.28 144.35 L513.36 140.88 C514.6 139.65 515.6 138.08 516.37 136.17 L517.45 135.25 C517.66 135.15 517.76 134.91 517.76 134.55 Z M553.07 98.91 L553.69 98.06 C555.04 97.75 555.89 97.24 556.25 96.52 C556.41 96.16 557.7 94.82 560.13 92.51 C562.55 90.19 563.9 88.96 564.15 88.8 C565.79 85.82 566.79 83.58 567.15 82.09 C567.77 81.78 568.07 81.42 568.07 81.01 L568.69 79.78 L569.38 79.62 L569.69 79.32 L569.69 78.62 C569.69 77.7 570.69 75.54 572.69 72.14 C574.69 67.97 575.77 65.67 575.92 65.24 C576.08 64.8 576.39 64.16 576.85 63.31 C577.31 62.46 578.02 60.83 578.97 58.41 C579.92 55.99 581.4 53.47 583.41 50.85 C583.61 50.74 583.92 50.17 584.33 49.11 C584.75 48.06 585.39 47.02 586.26 45.99 L587.19 44.37 C587.5 43.85 588.04 42.95 588.81 41.67 C589.58 40.38 590.29 39.37 590.93 38.62 C591.57 37.87 592.06 37.09 592.4 36.27 C592.73 35.44 593.13 34.85 593.59 34.49 C594.05 34.13 594.53 33.48 595.02 32.52 C595.51 31.57 596.27 31.1 597.29 31.1 C599.3 31.1 600.75 31.92 601.65 33.57 C602.55 35.21 603 36.65 603 37.89 C603 38.04 602.7 39.15 602.08 41.2 L600.92 48.15 C599.89 48.66 599.38 49.25 599.38 49.92 C599.38 52.65 598.32 55.48 596.21 58.41 C596.01 58.61 595.84 59.28 595.71 60.41 C595.58 61.55 595.13 62.47 594.36 63.19 C593.59 63.91 592.9 65.12 592.28 66.82 L585.11 77.08 L584.49 77.7 C584.18 77.9 583.82 78.34 583.41 79.01 L582.17 78.62 C580.79 78.62 580.09 79.06 580.09 79.93 C580.09 80.24 580.19 80.65 580.4 81.17 L580.4 81.32 C580.4 81.37 578.5 84.07 574.69 89.42 C574.48 89.73 574.12 90.73 573.61 92.43 L572.53 94.75 C571.45 96.24 570.69 97.69 570.25 99.1 C569.82 100.52 569.24 101.66 568.52 102.54 C567.49 104.85 566.98 106.06 566.98 106.16 C566.98 106.47 567.13 106.63 567.44 106.63 C567.75 106.63 568.48 105.85 569.64 104.31 C570.79 102.77 571.75 101.74 572.49 101.23 C573.24 100.71 573.87 99.99 574.38 99.07 L575.16 98.53 C575.36 98.42 575.8 98.11 576.47 97.6 L577.24 97.75 C577.65 97.45 577.91 97.09 578.01 96.67 C578.12 96.26 578.27 95.95 578.48 95.75 C579.82 95.59 580.66 95.11 580.99 94.28 C581.33 93.46 581.72 93.05 582.19 93.05 C582.6 93.05 583.14 92.57 583.81 91.62 C584.48 90.67 585.42 89.9 586.63 89.31 C587.84 88.71 588.74 88.19 589.34 87.72 C589.93 87.26 591.13 86.71 592.93 86.07 C594.73 85.42 595.94 85.1 596.56 85.1 L597.02 85.1 L597.64 85.26 L598.8 85.1 C600.61 85.1 602.41 85.6 604.21 86.61 C606.01 87.61 606.78 89.16 606.52 91.27 L605.91 96.06 L605.06 99.84 C604.96 100.45 604.54 101.82 603.82 103.93 C603.1 106.03 602.74 107.24 602.74 107.55 L602.43 109.02 L602.74 111.02 L602.59 112.64 C602.59 113.16 602.85 113.42 603.36 113.42 C603.56 113.42 604.13 112.95 605.05 112.03 C605.61 112.13 606.15 111.82 606.66 111.1 C607.18 110.38 607.87 109.63 608.74 108.86 C608.74 108.66 609.07 108.46 609.74 108.28 C610.41 108.1 611.33 107.5 612.51 106.47 C612.71 106.01 613.71 105.02 615.51 103.5 C617.3 101.98 619.02 100.81 620.66 99.99 L621.12 99.37 C621.99 98.5 622.79 98.06 623.5 98.06 C624.22 98.06 624.58 98.45 624.58 99.22 C624.58 99.73 624.45 100.27 624.19 100.84 C623.94 101.41 623.76 102.14 623.66 103.04 C623.55 103.94 623.04 105.24 622.11 106.93 L621.81 107.71 C621.45 108.58 621.01 109.09 620.5 109.25 C619.98 109.4 619.43 109.83 618.84 110.52 C618.25 111.22 617.03 111.87 615.18 112.49 C614.36 114.03 613.72 114.8 613.25 114.8 L611.87 114.19 C610.79 115.06 610.25 115.96 610.25 116.89 C608.92 118.02 608.12 118.76 607.86 119.12 L606.32 118.97 C605.91 118.97 605.71 119.54 605.71 120.67 C605.71 120.77 605.18 121.12 604.13 121.71 C603.07 122.3 602.26 122.83 601.7 123.29 C601.13 123.75 599.93 123.98 598.08 123.98 C597.87 123.98 597.56 123.8 597.15 123.44 C596.74 123.08 596.14 122.78 595.34 122.52 C594.55 122.26 594 121.66 593.69 120.71 C593.38 119.75 593.05 119.01 592.69 118.47 C592.33 117.93 592.15 117.5 592.15 117.2 L592.3 115.65 L591.91 114.03 L592.61 112.95 C592.3 112.23 592.15 111.74 592.15 111.49 L592.92 106.78 C593.48 103.39 593.95 101.17 594.31 100.15 C594.41 100.04 594.46 99.73 594.46 99.22 L594.31 97.29 L594.46 96.21 C594.46 95.44 594.2 95.03 593.69 94.98 C593.17 94.93 592.87 94.8 592.76 94.59 C592.09 94.28 591.71 94.13 591.6 94.13 C591.19 94.13 590.83 94.45 590.52 95.09 C590.21 95.74 589.8 96.31 589.29 96.83 L587.36 96.52 L587.36 96.67 C587.36 97.09 586.66 97.88 585.27 99.07 C583.98 99.37 582.88 100.04 581.95 101.07 C581.54 101.07 580.83 101.47 579.83 102.27 C578.82 103.06 578.17 103.51 577.86 103.62 L577.24 104.85 L576 105.24 C575.64 106.27 574.79 106.93 573.45 107.24 L572.68 108.71 C571.6 108.81 570.85 109.36 570.44 110.37 C570.03 111.37 569.72 111.87 569.52 111.87 C569.41 111.87 569.25 111.81 569.01 111.68 C568.78 111.55 568.56 111.49 568.36 111.49 C567.22 111.49 566.61 112.33 566.5 114.03 C566.5 114.24 565.45 115.45 563.34 117.66 C561.23 119.87 560.09 121 559.94 121.05 C559.78 121.1 559.49 121.63 559.05 122.63 C558.61 123.64 558.01 124.38 557.24 124.87 C556.46 125.36 555.89 125.76 555.5 126.07 C555.11 126.38 554.82 126.53 554.61 126.53 C553.53 126.53 552.65 125.76 551.98 124.22 C551.32 122.67 550.98 121.88 550.98 121.82 L551.44 120.2 L551.29 118.82 C551.29 118.76 551.61 117.72 552.26 115.69 C552.9 113.66 553.63 112.06 554.46 110.91 C555.28 109.75 555.92 107.86 556.39 105.24 C554.07 106.78 552.68 107.55 552.22 107.55 C551.19 107.55 550.67 106.88 550.67 105.55 C550.67 103.08 551.47 100.87 553.07 98.91 Z M642.83 57.33 L643.91 57.02 L644.68 56.25 L644.83 56.25 L645.53 56.56 L645.68 56.56 C646.91 56.56 648.01 56.31 648.97 55.82 C649.93 55.34 650.73 54.99 651.38 54.78 C652.03 54.58 652.44 54.42 652.59 54.32 C652.75 54.22 652.88 54.17 652.98 54.17 L654.23 54.32 C654.64 54.32 655.19 53.59 655.89 52.12 C656.58 50.65 657.36 49.59 658.24 48.92 C659.11 48.25 659.98 46.99 660.86 45.14 C661.06 44.88 661.3 44.48 661.55 43.94 C661.81 43.4 662.02 43.13 662.17 43.13 C662.94 43.13 663.56 42.64 664.02 41.67 C665.56 39.87 666.82 38.97 667.8 38.97 C669.08 38.97 669.98 40.2 670.5 42.67 L671.27 45.6 C671.27 45.65 671.14 46.03 670.88 46.72 C670.62 47.41 670.51 48.11 670.53 48.8 C670.56 49.5 670.53 49.96 670.46 50.19 C670.38 50.42 670.34 50.69 670.34 51 C670.34 51.41 670.78 51.62 671.65 51.62 C671.96 51.62 672.53 51.41 673.35 51 L673.81 50.85 C674.33 51.16 674.76 51.31 675.12 51.31 C675.23 51.31 675.96 51.05 677.32 50.54 C678.69 50.02 679.55 49.74 679.91 49.69 C680.27 49.64 680.88 49.43 681.76 49.07 L682.68 49.07 L683.3 49.3 C683.51 49.3 683.93 49.09 684.58 48.65 C685.22 48.21 686.44 47.94 688.24 47.84 L689.32 47.38 L689.63 47.38 C691.33 47.38 692.17 48.12 692.17 49.61 C692.17 49.92 691.93 50.46 691.44 51.23 C690.95 52 690.55 52.88 690.25 53.86 L686.7 58.33 C685.51 59.87 684.33 60.65 683.15 60.65 C682.94 60.65 682.3 59.95 681.22 58.56 C681.22 58.46 681.12 58.41 680.91 58.41 C680.4 58.41 679.86 58.51 679.29 58.72 C678.72 58.92 678.26 59.03 677.9 59.03 C677.75 59.03 676.38 59.41 673.81 60.18 L671.96 60.49 C671.76 60.49 671.27 60.59 670.5 60.8 L666.56 61.57 C665.22 62.24 664.16 63.5 663.39 65.35 C663.39 65.45 663.13 65.69 662.62 66.05 L659.14 72.37 C658.01 72.68 657.26 73.35 656.9 74.38 L656.59 74.84 C656.03 74.94 655.51 75.27 655.05 75.81 C654.59 76.35 654.15 76.77 653.73 77.08 L652.34 79.16 C651.78 79.88 651.21 80.67 650.64 81.51 C650.08 82.36 649.66 83.26 649.41 84.21 C649.15 85.17 648.94 85.72 648.79 85.87 C648.63 86.03 648.56 86.31 648.56 86.72 L648.32 87.34 C647.71 87.96 647.4 88.65 647.4 89.42 L647.71 90.66 C646.98 93.12 646.62 94.44 646.62 94.59 C646.62 94.69 646.68 94.98 646.78 95.44 L646.78 95.9 C646.78 97.03 646.37 98.45 645.54 100.15 L645.7 101.38 L645.23 104.85 C645.23 105.31 645.39 106.16 645.7 107.4 C645.49 107.6 645.39 107.76 645.39 107.86 C645.39 109.3 646.15 110.88 647.67 112.6 C649.19 114.33 649.95 117.02 649.95 120.67 C649.95 120.98 649.87 121.43 649.72 122.02 C649.56 122.61 649.46 123.25 649.41 123.95 C649.35 124.64 648.96 125.32 648.21 125.99 C647.46 126.66 646.83 126.99 646.32 126.99 C643.58 126.99 641.55 125.01 640.21 121.05 C638.87 117.09 638.2 114.55 638.2 113.42 L638.35 110.41 L637.89 108.86 L638.35 102.07 L638.04 100.45 L639.82 93.82 L639.82 91.43 C639.82 91.32 640.18 90.91 640.9 90.19 C640.9 90.09 640.8 90.04 640.6 90.04 C640.29 90.04 639.87 90.35 639.36 90.96 C638.84 91.58 638.2 92.17 637.43 92.74 L636.81 93.82 C636.71 93.72 636.5 93.61 636.19 93.51 C635.93 93.61 635.08 94.82 633.64 97.14 C632.56 97.29 631.71 97.91 631.09 98.99 C630.47 100.07 629.62 100.61 628.54 100.61 L628.23 100.76 C628.02 102.25 627.3 103 626.07 103 L625.76 103.15 C624.98 104.9 624.18 105.75 623.36 105.7 C622.85 107.24 621.58 108.3 619.57 108.86 C619.26 109.48 618.81 109.94 618.22 110.25 C617.63 110.56 617.2 110.84 616.95 111.1 C616.69 111.36 616.46 111.49 616.25 111.49 C615.58 111.49 615.25 110.77 615.25 109.33 C615.25 108.91 615.41 108.46 615.75 107.98 C616.08 107.49 616.25 107.14 616.25 106.93 C616.25 106.83 615.99 106.52 615.48 106.01 C615.48 104.41 615.89 103.41 616.71 103 C617.54 102.59 618.15 102 618.57 101.23 C618.82 100.61 619.34 100.17 620.11 99.91 C620.88 99.66 621.27 99.32 621.27 98.91 C621.27 98.55 621.94 97.83 623.28 96.75 C624.62 95.67 625.6 94.73 626.21 93.94 C626.83 93.14 627.35 92.74 627.76 92.74 L628.07 92.43 C628.17 91.14 628.66 90.5 629.53 90.5 L630.31 90.04 L630.46 89.42 L630.92 89.11 L631.54 89.11 L631.93 88.8 C632.03 87.52 632.64 86.52 633.74 85.8 C634.85 85.08 636.87 83.06 639.81 79.74 C642.74 76.42 644.39 74.3 644.75 73.38 C645.11 72.45 645.77 71.2 646.72 69.63 C647.67 68.06 648.2 66.59 648.3 65.2 C648.2 64.99 648.05 64.79 647.84 64.58 L644.52 66.2 C644.52 66.05 644.01 65.81 642.98 65.51 C642.21 65.97 641.64 66.43 641.28 66.89 C640.92 67.36 640.64 67.59 640.43 67.59 L639.35 67.43 L635.96 67.82 C632.92 68.08 630.64 68.69 629.09 69.67 L625.93 70.6 L625.24 70.6 C624.82 70.6 624.21 70.85 623.38 71.37 L621.61 71.21 C619.96 72.09 618.76 72.53 617.98 72.53 C617.88 72.53 617.57 72.47 617.06 72.37 L609.19 74.53 C608.57 74.74 607.18 75.79 605.02 77.7 L604.41 77.85 C603.89 77.85 603.29 77.27 602.59 76.11 C601.9 74.96 601.55 73.92 601.55 72.99 C601.55 67.9 605.92 64.94 614.67 64.12 L617.83 62.88 L617.98 62.88 L618.83 63.19 L619.14 63.19 C619.45 63.19 619.94 63 620.61 62.61 C621.28 62.23 622.77 61.75 625.08 61.19 L628.24 60.34 L629.25 60.49 C629.76 60.49 630.34 60.29 630.98 59.87 C631.63 59.46 632.6 59.17 633.92 58.99 C635.23 58.81 636.14 58.61 636.65 58.41 L637.89 58.1 C638.09 58.1 638.52 57.92 639.16 57.56 C639.8 57.2 640.64 57.02 641.67 57.02 C641.82 57.02 642.21 57.12 642.83 57.33 Z M724.22 88.57 L724.37 86.88 L724.37 86.26 L725.07 84.18 C726.1 81.04 727.19 78.72 728.34 77.23 C729.5 75.74 730.13 74.69 730.23 74.07 C730.33 73.45 730.73 72.77 731.42 72.02 C732.12 71.28 732.62 70.6 732.93 69.98 L733.54 69.05 C733.54 68.13 734.12 67.11 735.27 66.01 C736.43 64.9 737.07 64.04 737.2 63.42 C737.33 62.81 738.11 61.67 739.55 60.03 C739.55 59.57 740.08 58.73 741.13 57.52 C742.18 56.31 742.86 55.45 743.17 54.94 C743.48 54.42 744.12 53.96 745.1 53.55 C745.3 52.47 745.82 51.57 746.64 50.85 C747.46 50.13 748.09 49.5 748.52 48.96 C748.96 48.42 749.49 47.99 750.1 47.68 L750.87 46.76 C751.23 46.24 752.09 45.47 753.45 44.44 C754.81 43.42 755.7 42.64 756.11 42.13 L758.04 41.36 L758.35 41.05 L758.5 40.12 C758.71 40.02 759.06 39.67 759.58 39.08 C760.09 38.49 760.55 38.04 760.97 37.73 L763.04 35.65 C763.9 35.14 764.62 34.72 765.21 34.42 C765.8 34.11 766.18 33.71 766.33 33.22 C766.49 32.73 767.41 32.23 769.11 31.71 C770.03 30.48 771.35 29.76 773.04 29.55 C773.66 28.47 775.51 27.28 778.6 25.97 C781.68 24.66 783.84 24 785.08 24 C786.21 24 787.26 24.15 788.24 24.46 L789.48 24.31 C789.68 24.41 790.17 24.62 790.94 24.93 L791.1 24.93 L791.71 25.08 C793.51 27.14 794.41 29.32 794.41 31.64 C794.41 32.72 794.36 34 794.26 35.5 C793.69 37.3 793.41 38.74 793.41 39.82 C793.41 40.54 793.15 41.41 792.64 42.44 L792.02 44.52 C791.71 47.56 790.66 49.07 788.86 49.07 C786.03 49.07 784.62 47.76 784.62 45.14 C784.62 43.44 785.34 42.03 786.78 40.9 C789.3 39.3 790.56 36.73 790.56 33.18 C790.56 32.2 790.15 31.71 789.32 31.71 L789.17 31.71 C788.65 32.02 788.24 32.18 787.93 32.18 L786.47 31.71 L786.31 31.71 L785.7 32.02 C785.59 31.92 785.22 32.09 784.58 32.52 C783.93 32.96 783.06 33.36 781.95 33.72 C780.85 34.08 779.74 34.87 778.64 36.07 C777.53 37.28 776.3 38.16 774.93 38.7 C773.57 39.24 772.38 40.23 771.35 41.67 C771.35 41.77 771.3 41.82 771.19 41.82 L769.57 41.67 C769.37 41.67 769.01 42.31 768.49 43.6 L768.03 43.9 L767.49 43.9 C767.28 44.01 766.92 44.32 766.41 44.83 L765.48 45.6 C765.17 46.58 764.58 47.27 763.71 47.68 L762.78 49.3 C762.37 49.51 761.9 49.82 761.36 50.23 C760.82 50.64 760.37 50.92 760.01 51.08 C759.65 51.23 759.29 51.81 758.93 52.81 C758.57 53.82 757.39 54.68 755.39 55.4 C755.18 55.61 755.08 55.79 755.08 55.94 C755.08 56.04 755.13 56.25 755.23 56.56 L755.23 56.71 C755.23 57.74 753.9 59.31 751.23 61.42 L751.23 61.73 C751.23 62.29 750.79 63.36 749.92 64.93 C749.05 66.5 748.29 67.58 747.65 68.17 C747 68.76 746.68 69.16 746.68 69.36 L746.68 70.44 C746.68 71.27 746.32 71.78 745.61 71.99 C744.94 72.55 744.45 72.99 744.14 73.3 C744.14 74.33 743.7 75.11 742.83 75.65 C741.96 76.19 741.45 76.62 741.29 76.92 L741.83 77.85 L741.83 78.16 C741.83 79.65 741.09 80.6 739.6 81.01 L739.6 81.32 C739.6 81.84 739.22 82.59 738.48 83.6 C737.73 84.6 737.05 85.28 736.44 85.64 C736.34 85.64 736.23 85.74 736.13 85.95 L736.44 88.11 C735.1 90.94 733.79 93.15 732.51 94.75 C731.99 94.85 731.74 95.08 731.74 95.44 L732.05 96.67 L732.05 96.98 C732.05 98.27 731.83 99.17 731.39 99.68 C730.95 100.2 730.74 100.51 730.74 100.61 L731.2 101.69 C731.2 102.15 730.99 102.49 730.58 102.69 C730.17 102.9 729.96 103.1 729.96 103.31 C729.96 103.41 730.02 103.57 730.12 103.77 L730.12 104.23 C730.12 104.65 729.76 106.09 729.04 108.55 L729.04 109.63 L728.73 110.71 C728.73 110.82 728.86 111.14 729.11 111.68 C729.37 112.22 729.5 112.69 729.5 113.11 L729.04 114.19 C728.93 114.29 728.88 114.44 728.88 114.65 C728.88 115.63 729.1 116.87 729.54 118.39 C729.98 119.91 730.71 120.67 731.74 120.67 C733.49 120.67 734.55 120.46 734.94 120.05 C735.32 119.64 736.43 118.73 738.25 117.31 C740.08 115.9 741.29 114.89 741.88 114.3 C742.47 113.71 742.93 113.34 743.27 113.18 C743.6 113.03 745 111.42 747.47 108.36 C749.94 105.3 752.1 102.56 753.95 100.15 C754.05 100.04 754.19 99.7 754.37 99.1 C754.55 98.51 755.12 97.77 756.07 96.87 C757.02 95.97 758.42 94.21 760.27 91.58 L761.74 90.19 C762.87 88.6 763.52 87.61 763.7 87.22 C763.88 86.84 764.26 86.45 764.82 86.07 C765.39 85.68 765.82 85.17 766.13 84.52 C766.44 83.88 766.89 83.51 767.48 83.4 C768.07 83.3 768.37 83.04 768.37 82.63 L768.22 81.01 C768.94 79.88 769.76 79.14 770.68 78.78 C770.58 78.57 770.53 78.26 770.53 77.85 C770.53 76.62 771.06 75.83 772.11 75.5 C773.16 75.16 773.72 74.82 773.77 74.46 C773.82 74.1 773.95 73.66 774.15 73.14 L774.39 72.53 C774.8 71.65 775.21 71.01 775.62 70.6 L776.54 69.21 L778.16 67.59 C778.16 67.49 778.22 67.38 778.32 67.28 L778.01 65.51 C778.01 65.2 778.68 64.79 780.01 64.27 L780.17 63.96 L780.17 62.57 C780.17 62.11 780.66 61.62 781.63 61.11 C781.89 60.03 782.41 59.28 783.18 58.87 C783.28 57.53 783.76 56.39 784.61 55.44 C785.45 54.49 786.2 53.53 786.84 52.58 C787.49 51.63 788.43 51.16 789.66 51.16 C790.33 51.16 791.53 51.63 793.25 52.58 C794.98 53.53 795.84 54.91 795.84 56.71 C795.84 56.92 795.58 57.53 795.07 58.56 C794.55 59.59 794.06 61.65 793.6 64.73 C792.52 67.61 791.8 69.31 791.44 69.83 C791.75 70.55 791.9 71.11 791.9 71.52 C791.9 72.19 791.47 72.99 790.59 73.92 C790.44 74.89 790.23 75.69 789.98 76.31 L789.98 77.54 C789.98 78.52 789.26 79.21 787.82 79.62 C787.66 79.62 787.46 80.25 787.2 81.51 C786.94 82.77 786.81 83.46 786.81 83.56 L787.12 85.64 C787.12 86.36 786.92 86.93 786.5 87.34 C786.09 87.75 785.54 88.46 784.85 89.46 C784.15 90.46 783.8 91.07 783.8 91.27 C783.8 92.15 783.7 92.84 783.49 93.36 C783.29 93.87 783.16 94.42 783.11 95.02 C783.06 95.61 782.83 96.16 782.41 96.67 C782 97.19 781.75 97.6 781.64 97.91 C781.95 98.58 782.11 98.96 782.11 99.07 C782.11 99.37 781.95 99.99 781.64 100.92 C781.08 101.43 780.79 101.87 780.79 102.23 C780.79 102.28 780.97 102.64 781.33 103.31 C781.23 103.93 780.95 104.77 780.49 105.85 L780.33 106.32 L780.64 110.71 C780.64 110.82 780.43 111.13 780.02 111.64 L780.02 112.03 C780.02 112.54 780.18 112.8 780.49 112.8 C780.69 112.8 781.49 112.4 782.88 111.6 C784.27 110.8 785.04 110.25 785.19 109.94 C785.66 109.02 787.79 107.5 791.6 105.39 L801.63 96.91 C802.3 96.24 802.79 95.9 803.1 95.9 C803.98 95.9 804.41 96.31 804.41 97.14 C804.41 98.32 804.13 99.68 803.56 101.23 L803.56 102.38 C803.56 103.72 802.84 104.98 801.4 106.16 C801.3 106.57 800.95 106.91 800.36 107.17 C799.77 107.42 799.34 107.8 799.09 108.28 C798.83 108.77 798.25 109.22 797.35 109.63 C796.45 110.05 795.74 110.51 795.23 111.02 L794.61 111.33 C793.84 111.69 793.32 112.26 793.06 113.03 C792.81 113.8 792.52 114.19 792.22 114.19 C791.03 114.19 789.44 115.19 787.43 117.2 L786.5 117.5 L785.58 118.12 C785.06 118.58 784.65 118.82 784.34 118.82 L783.18 118.66 L779.09 119.43 C778.47 119.43 777.88 118.94 777.32 117.97 L776.08 117.97 L775 116.73 C773.76 116.32 772.66 114.92 771.68 112.53 C770.7 110.14 770.21 108.07 770.21 106.32 C770.21 105.24 770.46 103.57 770.95 101.3 C771.44 99.04 771.68 97.37 771.68 96.29 C771.68 95.16 771.89 94.04 772.3 92.93 C772.71 91.83 772.91 90.91 772.91 90.19 C772.91 89.99 773.12 89.28 773.53 88.07 C773.94 86.86 774.15 85.62 774.15 84.33 C774.15 84.23 774.05 84.18 773.84 84.18 C771.16 88.08 769.36 90.3 768.43 90.81 C768.07 91.02 767.66 91.38 767.2 91.89 C767.76 92.76 768.04 93.25 768.04 93.36 C768.04 94.18 767.04 95.59 765.04 97.6 L764.19 99.37 C763.88 99.68 763.67 99.84 763.57 99.84 L761.87 99.68 L761.41 100.3 L761.87 101.84 C761.31 103.03 760.61 103.72 759.79 103.93 L759.48 104.23 L759.33 105.01 L758.56 105.55 C758.45 105.55 758.4 105.6 758.4 105.7 L758.71 107.24 C758.5 107.55 758.21 107.85 757.82 108.13 C757.44 108.41 757.06 109.07 756.7 110.1 C756.34 111.13 755.75 111.64 754.93 111.64 L754.24 111.33 L754.08 111.33 L753.93 112.8 L754.08 113.42 C754.08 113.83 753.67 114.29 752.85 114.8 L752.08 115.65 C752.08 116.27 751.5 117.16 750.34 118.31 C749.18 119.47 748.32 120.51 747.75 121.44 C746.88 121.9 745.95 122.75 744.98 123.98 C743.28 125.42 742.27 126.34 741.93 126.72 C741.6 127.11 740.97 127.35 740.04 127.46 C739.37 128.18 738.5 128.63 737.42 128.81 C736.34 128.99 735.4 129.23 734.6 129.54 C733.8 129.85 733.3 130 733.1 130 C731.19 130 729.29 129.26 727.39 127.76 C726.1 127.71 725.2 127.25 724.69 126.38 L721.37 123.37 C719.26 120.23 718.21 116.86 718.21 113.26 C718.21 112.54 718.32 111.91 718.56 111.37 C718.79 110.83 718.9 110.46 718.9 110.25 C718.9 110.05 718.76 109.81 718.48 109.56 C718.2 109.3 718.05 109.07 718.05 108.86 C718.05 108.4 718.49 107.91 719.37 107.4 C718.75 106.78 718.44 106.21 718.44 105.7 C718.44 105.24 718.65 104.65 719.06 103.93 C719.47 103.21 719.78 102.85 719.98 102.85 C720.19 102.85 720.55 103.1 721.06 103.62 C721.06 103.72 721.11 103.77 721.22 103.77 C721.42 103.77 721.53 103.67 721.53 103.46 C721.53 102.95 721.24 102.54 720.68 102.23 C720.11 101.92 719.78 101.33 719.67 100.45 C719.47 100.25 719.37 100.09 719.37 99.99 L720.75 94.13 C721.11 92.58 721.96 91.17 723.3 89.88 Z M804.42 104.7 L804.42 103.93 C804.42 103.41 804.94 102.31 805.96 100.61 C806.99 98.91 808.17 97.81 809.51 97.29 C809.61 97.29 809.67 97.24 809.67 97.14 L809.51 95.9 C809.72 95.7 810.23 95.03 811.05 93.9 C811.87 92.76 812.67 92.28 813.44 92.43 C814.01 91.61 814.73 90.93 815.6 90.39 C816.47 89.85 817.27 89.14 817.99 88.26 L820.84 86.49 C822.85 85.15 824.31 84.48 825.24 84.48 L826.39 84.48 C827.01 83.46 827.83 82.94 828.86 82.94 C829.84 82.94 830.48 83.1 830.79 83.4 C830.89 83.51 830.99 83.56 831.1 83.56 C831.15 83.56 831.46 83.35 832.02 82.94 C832.59 82.53 833.28 82.32 834.1 82.32 C834.31 82.32 835.46 82.74 837.57 83.56 C838.19 82.94 838.78 82.63 839.34 82.63 C839.55 82.63 839.91 82.79 840.42 83.1 C840.94 83.4 841.46 83.67 842 83.91 C842.54 84.14 843.07 85.09 843.58 86.76 C844.1 88.43 844.36 89.37 844.36 89.58 C844.36 90.4 843.68 91.36 842.32 92.47 C840.96 93.58 839.68 94.13 838.5 94.13 C838.09 94.13 837.58 93.77 836.96 93.05 C835.43 92.74 834.12 92.35 833.04 91.89 C831.6 92.2 830.5 92.58 829.73 93.05 L829.57 93.05 L828.88 92.43 L828.27 92.28 L828.11 92.28 C827.96 92.48 827.75 92.84 827.5 93.36 C826.67 93.92 825.97 94.3 825.38 94.48 C824.79 94.66 824.31 94.94 823.95 95.32 C823.6 95.71 822.99 96.11 822.15 96.52 C821.3 96.93 820.67 97.5 820.26 98.22 C819.23 98.78 818.49 99.12 818.03 99.22 L817.56 99.22 C817.15 100.04 816.21 101.41 814.72 103.31 L812.71 106.63 C812.25 107.04 811.69 107.51 811.02 108.05 C810.35 108.59 810.01 109.07 810.01 109.48 C810.01 109.58 810.07 109.84 810.17 110.25 L810.17 111.02 C810.17 111.33 809.92 111.7 809.44 112.14 C808.95 112.58 808.7 112.9 808.7 113.11 L808.86 114.8 L808.24 117.5 C808.24 119.1 809.4 119.9 811.71 119.9 L812.87 119.9 L816.18 119.36 C817.26 119.2 818.16 119.05 818.88 118.89 C819.6 118.74 820.01 118.66 820.11 118.66 C820.22 118.66 820.63 118.38 821.35 117.81 L822.12 117.81 L822.81 117.66 C823.02 116.58 824.48 115.68 827.2 114.96 C827.82 114.03 828.86 113.35 830.32 112.91 C831.79 112.48 833.27 111.54 834.76 110.1 L835.91 110.1 C836.07 110.1 836.54 109.8 837.34 109.21 C838.13 108.62 838.96 108.14 839.8 107.78 C840.65 107.42 841.18 107.11 841.38 106.86 C841.59 106.6 841.97 106.37 842.54 106.16 C843.46 104.72 844.57 103.82 845.85 103.46 L846.16 103.15 C846.98 102.43 847.5 102.07 847.7 102.07 L848.63 102.23 C849.14 102.23 849.46 101.91 849.59 101.26 C849.72 100.62 850.54 99.75 852.06 98.64 C853.57 97.54 854.54 96.98 854.95 96.98 C855.92 96.98 856.41 97.5 856.41 98.53 C856.41 99.3 855.97 99.73 855.1 99.84 C855.67 101.17 855.95 101.92 855.95 102.07 C855.95 103.77 855.1 104.88 853.4 105.39 C853.2 105.49 853.09 105.65 853.09 105.85 L852.94 107.24 C852.99 107.24 852.99 107.28 852.94 107.36 C852.89 107.44 852.79 107.55 852.63 107.71 L851.47 107.86 L851.17 108.32 C850.03 108.94 848.72 109.99 847.23 111.49 L845.69 113.11 L845.46 113.11 C844.94 112.59 844.53 112.33 844.22 112.33 C844.02 112.33 843.76 112.69 843.45 113.42 C841.7 115.16 840.44 116.17 839.67 116.42 C839.36 116.53 838.82 116.94 838.05 117.66 L836.51 118.66 L835.35 118.66 C835.2 118.82 835.06 119.03 834.93 119.32 C834.8 119.6 834.35 120.02 833.58 120.59 C832.81 121.16 832.26 121.66 831.92 122.09 C831.59 122.53 831.11 122.85 830.49 123.06 L829.11 122.75 C828.64 123.57 827.79 123.98 826.56 123.98 C826.25 124.19 825.8 124.59 825.21 125.18 C824.62 125.77 824.22 126.07 824.01 126.07 C823.81 126.07 823.27 125.76 822.39 125.14 L822.24 125.14 C821.73 125.14 821.47 125.53 821.47 126.3 C821.47 127.07 820.99 127.48 820.04 127.53 C819.09 127.58 818.2 127.84 817.38 128.3 L817.23 128.3 C816.04 128.3 815.2 128.09 814.68 127.65 C814.17 127.21 813.71 126.89 813.29 126.68 C811.7 127.2 810.85 127.46 810.75 127.46 C810.13 127.46 809.54 127.2 808.97 126.68 L805.66 124.99 C805.45 124.83 805.09 124.14 804.58 122.9 L804.11 122.29 C802.47 121.98 801.36 120.28 800.8 117.2 L800.18 115.34 C800.08 115.24 800.03 115.01 800.03 114.65 C800.03 114.14 800.23 113.35 800.64 112.3 C801.05 111.24 801.47 109.83 801.88 108.05 C802.29 106.28 803.14 105.16 804.42 104.7 Z M857.66 104.7 L857.66 103.93 C857.66 103.41 858.17 102.31 859.2 100.61 C860.22 98.91 861.41 97.81 862.74 97.29 C862.85 97.29 862.9 97.24 862.9 97.14 L862.74 95.9 C862.95 95.7 863.46 95.03 864.29 93.9 C865.11 92.76 865.9 92.28 866.67 92.43 C867.24 91.61 867.96 90.93 868.83 90.39 C869.71 89.85 870.5 89.14 871.22 88.26 L874.08 86.49 C876.08 85.15 877.54 84.48 878.47 84.48 L879.63 84.48 C880.24 83.46 881.07 82.94 882.09 82.94 C883.07 82.94 883.71 83.1 884.02 83.4 C884.12 83.51 884.23 83.56 884.33 83.56 C884.38 83.56 884.69 83.35 885.25 82.94 C885.82 82.53 886.51 82.32 887.33 82.32 C887.54 82.32 888.7 82.74 890.8 83.56 C891.42 82.94 892.01 82.63 892.58 82.63 C892.78 82.63 893.14 82.79 893.66 83.1 C894.17 83.4 894.7 83.67 895.24 83.91 C895.78 84.14 896.3 85.09 896.82 86.76 C897.33 88.43 897.59 89.37 897.59 89.58 C897.59 90.4 896.91 91.36 895.55 92.47 C894.19 93.58 892.92 94.13 891.74 94.13 C891.33 94.13 890.81 93.77 890.2 93.05 C888.66 92.74 887.35 92.35 886.27 91.89 C884.83 92.2 883.73 92.58 882.96 93.05 L882.81 93.05 L882.11 92.43 L881.5 92.28 L881.34 92.28 C881.19 92.48 880.98 92.84 880.73 93.36 C879.91 93.92 879.2 94.3 878.61 94.48 C878.02 94.66 877.55 94.94 877.19 95.32 C876.83 95.71 876.22 96.11 875.38 96.52 C874.53 96.93 873.9 97.5 873.49 98.22 C872.47 98.78 871.72 99.12 871.26 99.22 L870.8 99.22 C870.39 100.04 869.44 101.41 867.95 103.31 L865.95 106.63 C865.48 107.04 864.92 107.51 864.25 108.05 C863.58 108.59 863.25 109.07 863.25 109.48 C863.25 109.58 863.3 109.84 863.4 110.25 L863.4 111.02 C863.4 111.33 863.16 111.7 862.67 112.14 C862.18 112.58 861.94 112.9 861.94 113.11 L862.09 114.8 L861.47 117.5 C861.47 119.1 862.63 119.9 864.94 119.9 L866.1 119.9 L869.42 119.36 C870.49 119.2 871.39 119.05 872.11 118.89 C872.83 118.74 873.24 118.66 873.35 118.66 C873.45 118.66 873.86 118.38 874.58 117.81 L875.35 117.81 L876.04 117.66 C876.25 116.58 877.71 115.68 880.44 114.96 C881.05 114.03 882.09 113.35 883.56 112.91 C885.02 112.48 886.5 111.54 887.99 110.1 L889.14 110.1 C889.3 110.1 889.77 109.8 890.57 109.21 C891.37 108.62 892.19 108.14 893.04 107.78 C893.88 107.42 894.41 107.11 894.62 106.86 C894.82 106.6 895.21 106.37 895.77 106.16 C896.7 104.72 897.8 103.82 899.09 103.46 L899.39 103.15 C900.22 102.43 900.73 102.07 900.94 102.07 L901.86 102.23 C902.37 102.23 902.69 101.91 902.82 101.26 C902.95 100.62 903.77 99.75 905.29 98.64 C906.81 97.54 907.77 96.98 908.18 96.98 C909.16 96.98 909.64 97.5 909.64 98.53 C909.64 99.3 909.21 99.73 908.33 99.84 C908.9 101.17 909.18 101.92 909.18 102.07 C909.18 103.77 908.33 104.88 906.63 105.39 C906.43 105.49 906.33 105.65 906.33 105.85 L906.17 107.24 C906.22 107.24 906.22 107.28 906.17 107.36 C906.12 107.44 906.02 107.55 905.86 107.71 L904.71 107.86 L904.4 108.32 C903.27 108.94 901.96 109.99 900.46 111.49 L898.92 113.11 L898.69 113.11 C898.18 112.59 897.77 112.33 897.46 112.33 C897.25 112.33 896.99 112.69 896.68 113.42 C894.94 115.16 893.68 116.17 892.91 116.42 C892.6 116.53 892.06 116.94 891.29 117.66 L889.74 118.66 L888.59 118.66 C888.43 118.82 888.29 119.03 888.16 119.32 C888.03 119.6 887.58 120.02 886.81 120.59 C886.04 121.16 885.49 121.66 885.15 122.09 C884.82 122.53 884.34 122.85 883.73 123.06 L882.34 122.75 C881.87 123.57 881.03 123.98 879.79 123.98 C879.48 124.19 879.03 124.59 878.44 125.18 C877.85 125.77 877.45 126.07 877.25 126.07 C877.04 126.07 876.5 125.76 875.63 125.14 L875.47 125.14 C874.96 125.14 874.7 125.53 874.7 126.3 C874.7 127.07 874.23 127.48 873.27 127.53 C872.32 127.58 871.44 127.84 870.61 128.3 L870.46 128.3 C869.28 128.3 868.43 128.09 867.91 127.65 C867.4 127.21 866.94 126.89 866.53 126.68 C864.93 127.2 864.08 127.46 863.98 127.46 C863.36 127.46 862.77 127.2 862.21 126.68 L858.89 124.99 C858.68 124.83 858.32 124.14 857.81 122.9 L857.35 122.29 C855.7 121.98 854.59 120.28 854.03 117.2 L853.41 115.34 C853.31 115.24 853.26 115.01 853.26 114.65 C853.26 114.14 853.46 113.35 853.87 112.3 C854.29 111.24 854.7 109.83 855.11 108.05 C855.52 106.28 856.37 105.16 857.66 104.7 Z M914.77 95.59 L916.39 94.28 C917.62 94.18 918.29 93.54 918.39 92.35 C918.5 91.17 919.34 90.14 920.94 89.27 L921.86 87.96 C922.63 87.18 924.74 86.18 928.18 84.95 C929.06 84.43 929.65 83.97 929.96 83.56 C930.06 83.46 930.16 83.4 930.27 83.4 L931.5 83.71 C932.17 83.71 933.03 83.53 934.08 83.17 C935.14 82.81 936.15 82.63 937.13 82.63 L940.37 82.48 C940.57 82.48 941 82.63 941.64 82.94 C942.28 83.25 943.07 83.4 943.99 83.4 C945.12 83.4 946.16 83.92 947.11 84.95 C948.06 85.98 948.54 86.93 948.54 87.8 C948.54 89.4 947.72 91.02 946.08 92.66 C944.43 94.31 943.12 95.23 942.15 95.44 C941.28 96.31 940.61 96.87 940.15 97.1 C939.68 97.33 939.21 97.69 938.72 98.18 C938.23 98.67 937.84 98.91 937.53 98.91 C937.32 98.91 937.17 98.85 937.07 98.72 C936.96 98.59 936.81 98.53 936.6 98.53 C935.78 98.53 934.88 99.53 933.91 101.53 L932.52 101.38 C931.65 101.95 931.09 102.56 930.83 103.23 C930.57 103.9 930.03 104.23 929.21 104.23 C927.31 106.14 926.03 107.09 925.36 107.09 C925.26 107.09 924.9 106.99 924.28 106.78 C923.87 107.29 923.67 107.83 923.67 108.4 C923.67 109.02 923.26 109.38 922.43 109.48 L921.43 110.41 L920.66 110.25 L919.12 111.87 C918.35 111.87 917.56 112.13 916.74 112.64 C916.63 113.26 916.48 114.05 916.27 115 C916.07 115.95 915.96 116.48 915.96 116.58 C915.96 118.07 917.33 118.82 920.05 118.82 L923.76 118.28 C924.74 118.28 925.65 118.02 926.5 117.5 C927.35 116.99 928.26 116.73 929.24 116.73 C929.54 116.73 930.01 116.63 930.62 116.42 L931.4 116.73 C931.76 115.96 932.42 115.27 933.4 114.65 C934.38 114.03 935.15 113.72 935.72 113.72 L936.49 113.26 C936.69 112.64 937 112.23 937.41 112.03 L938.03 111.49 C938.44 111.07 938.83 110.87 939.19 110.87 L940.27 110.87 L940.58 110.71 C941.19 109.38 942.06 108.59 943.16 108.36 C944.27 108.13 944.96 107.76 945.25 107.24 C945.53 106.73 946.03 106.42 946.75 106.32 C947.47 106.21 948.08 105.87 948.56 105.28 C949.05 104.68 949.66 104.13 950.38 103.62 C951.1 103.1 951.6 102.72 951.88 102.46 C952.16 102.2 952.41 102.07 952.61 102.07 C952.92 102.07 953.08 102.31 953.08 102.77 C953.08 103.23 953.18 103.46 953.39 103.46 C953.59 103.46 953.69 103.36 953.69 103.15 C953.69 102.95 953.64 102.69 953.54 102.38 L953.54 101.84 C953.54 101.07 953.95 100.56 954.77 100.3 L958.25 98.06 C958.35 96.98 958.65 96.35 959.13 96.17 C959.62 95.99 960 95.79 960.25 95.56 C960.51 95.32 960.79 95.21 961.1 95.21 C961.77 95.21 962.1 95.59 962.1 96.37 L961.72 98.37 L962.1 100.45 C962.1 100.76 961.86 101.19 961.37 101.73 C960.88 102.27 960.51 103.09 960.25 104.2 C959.99 105.3 959.66 105.91 959.25 106.01 L958.78 106.01 C957.86 106.99 957.12 107.56 956.58 107.74 C956.04 107.92 955.62 108.25 955.31 108.71 L952.69 111.72 C952.17 112.23 951.73 112.69 951.37 113.11 C951.01 113.52 950.73 113.72 950.52 113.72 L949.91 113.11 C949.91 113 949.8 112.95 949.6 112.95 C949.08 112.95 948.76 113.26 948.63 113.88 C948.5 114.5 948.23 115.04 947.82 115.5 C946.28 116.22 945.27 116.89 944.81 117.5 L944.35 117.66 L942.96 117.66 C942.29 117.66 941.82 118.16 941.57 119.16 C941.31 120.17 940.58 120.74 939.37 120.9 C938.16 121.05 937.29 121.36 936.78 121.82 C936.68 121.93 936.44 122.03 936.08 122.13 C935.72 122.24 935 122.65 933.92 123.37 L927.44 125.68 C926.92 125.94 926.59 126.07 926.43 126.07 L924.27 126.38 C923.96 126.38 923.65 126.17 923.35 125.76 C923.04 125.35 922.83 125.14 922.73 125.14 L921.34 125.6 C920.31 125.91 919.33 126.07 918.4 126.07 C917.89 126.07 917.32 125.89 916.71 125.53 C916.09 125.17 915.6 124.91 915.24 124.76 C913.75 124.76 912.69 123.6 912.07 121.28 L911.15 121.44 C910.94 121.44 910.25 119.61 909.06 115.96 C908.75 115.55 908.27 115.25 907.6 115.07 C906.93 114.89 906.59 114.39 906.59 113.57 C906.59 111.25 907.1 109.7 908.1 108.9 C909.1 108.1 909.65 107.5 909.76 107.09 L910.84 103.08 C911.04 102.92 911.3 102.41 911.61 101.53 L913.38 98.29 C913.59 97.93 914.05 97.03 914.77 95.59 Z M931.09 90.96 L930.16 91.43 C929.95 91.53 929.35 91.98 928.35 92.78 C927.34 93.58 926.37 94.22 925.42 94.71 C924.46 95.2 923.49 96.47 922.48 98.53 C921.48 100.58 920.98 101.77 920.98 102.07 C920.98 102.38 921.13 102.54 921.44 102.54 L924.07 101.38 C925.04 100.92 925.96 100.33 926.8 99.61 C927.65 98.89 928.87 98.01 930.47 96.98 L931.09 96.37 C931.19 96.16 931.66 95.79 932.51 95.25 C933.36 94.71 933.99 94.18 934.4 93.67 L935.17 93.36 C936.05 91.97 936.94 91.12 937.84 90.81 C938.74 90.5 939.19 90.19 939.19 89.88 C939.19 89.27 938.7 88.96 937.72 88.96 C937.31 88.96 936.69 89.22 935.87 89.73 L934.09 89.73 C933.89 89.73 933.32 90.04 932.4 90.66 Z M967.68 90.19 L968.76 88.26 C969.07 87.8 969.47 87.33 969.96 86.84 C970.45 86.35 970.97 85.09 971.54 83.06 C972.11 81.03 972.74 79.62 973.43 78.85 C974.13 78.08 975.14 77.7 976.48 77.7 C977.25 77.7 978.27 78.07 979.53 78.81 C980.79 79.56 982.03 81.81 983.24 85.56 C984.45 89.32 985.05 91.97 985.05 93.51 C985.05 94.13 985.23 94.91 985.59 95.86 C985.95 96.82 986.19 97.55 986.29 98.06 C985.88 98.94 985.67 99.43 985.67 99.53 L985.83 102.69 L984.9 105.24 L984.9 107.09 C984.28 108.12 983.97 108.76 983.97 109.02 C983.97 109.33 984.08 109.63 984.28 109.94 C986.7 108.91 988.16 108.08 988.68 107.44 C989.19 106.79 989.69 106.39 990.18 106.24 C990.67 106.09 991.47 105.42 992.6 104.23 L994.07 103.46 C994.58 102.85 995.02 102.29 995.38 101.8 C995.74 101.32 996.16 100.97 996.65 100.76 C997.14 100.56 997.71 100.2 998.38 99.68 C999.05 99.17 1000.02 98.58 1001.31 97.91 L1002.08 96.98 C1002.85 96.11 1003.76 95.41 1004.81 94.9 C1005.86 94.39 1006.44 94.13 1006.54 94.13 C1006.9 94.13 1007.28 94.6 1007.66 95.56 C1008.05 96.51 1008.24 97.45 1008.24 98.37 C1008.24 99.25 1007.74 100.11 1006.74 100.96 C1005.73 101.8 1005.05 102.43 1004.69 102.85 C1004.33 103.26 1003.51 103.62 1002.23 103.93 C1002.12 103.98 1001.28 105.03 999.68 107.09 L998.14 108.01 L997.37 109.02 C997.27 109.22 996.58 109.43 995.29 109.63 C995.24 109.63 995.12 109.89 994.94 110.41 C994.76 110.92 994.21 111.28 993.29 111.49 C991.44 113.18 990.49 114.14 990.44 114.34 L988.82 114.65 C988.51 115.63 988.25 116.22 988.05 116.42 C986.81 116.73 986.12 117.25 985.97 117.97 C985.81 118.07 985.55 118.17 985.19 118.28 L984.89 118.51 C983.7 119.43 982.55 120 981.42 120.2 L979.65 120.67 L979.03 121.59 C979.03 121.85 978.4 122.18 977.14 122.6 C975.88 123.01 974.94 123.52 974.33 124.14 L973.02 125.14 C971.42 125.76 970.42 126.32 970.01 126.84 L968.93 126.84 C968.21 126.84 967.08 127.37 965.54 128.42 C964 129.47 962.77 130 961.84 130 C958.86 130 956.82 129.63 955.72 128.88 C954.61 128.14 953.7 127.21 952.98 126.11 C952.26 125 951.6 124.11 951.01 123.44 C950.42 122.78 950.13 122.24 950.13 121.82 C950.13 121.46 950.37 121.1 950.86 120.74 C951.35 120.38 951.87 119.65 952.44 118.55 C953 117.44 954.44 116.73 956.76 116.42 C956.86 116.42 957.23 116.27 957.87 115.96 C958.52 115.65 959.04 115.5 959.45 115.5 C959.97 115.5 960.61 115.96 961.38 116.89 C961.38 116.99 961.48 117.04 961.69 117.04 L962.92 116.89 C963.49 117.3 963.87 117.5 964.08 117.5 C965.31 117.5 966.62 116.89 968.01 115.65 L968.32 115.5 L968.93 115.5 C969.09 115.5 969.34 115.06 969.7 114.19 L971.01 111.49 L973.71 108.01 L973.71 107.24 C973.71 107.09 973.87 106.63 974.17 105.85 L974.17 104.7 C974.17 104.23 974.48 103.94 975.1 103.81 C975.72 103.68 976.02 103.36 976.02 102.85 L975.87 102.23 C975.46 101.66 975.25 101.23 975.25 100.92 L976.02 99.37 L975.87 97.75 L976.18 97.14 C975.97 96.42 975.87 96.01 975.87 95.9 L976.18 93.97 C976.18 93.92 976.04 93.43 975.75 92.51 C975.47 91.58 975.25 91.12 975.1 91.12 C974.79 91.12 973.81 91.92 972.16 93.51 C970.51 95.11 969.54 96.24 969.23 96.91 C968.92 97.57 968.26 98.18 967.26 98.72 C966.25 99.26 965.57 99.86 965.21 100.53 C964.85 101.2 964.41 101.59 963.9 101.69 L958.72 105.85 L953.08 110.02 C952.67 110.48 952.41 110.71 952.31 110.71 C950.4 110.71 949.45 109.66 949.45 107.55 C949.45 106.88 949.84 105.67 950.61 103.93 C950.97 103.72 951.24 103.57 951.42 103.46 C951.6 103.36 951.69 103.28 951.69 103.23 C951.69 103.18 951.64 103.15 951.54 103.15 L952 103.46 L952.15 103.46 C954.06 102.18 955.3 101.43 955.86 101.23 C956.43 101.02 956.94 100.45 957.41 99.53 L960.65 97.21 C961.47 96.6 962.74 95.47 964.43 93.82 C966.13 92.17 967.21 90.96 967.68 90.19 Z M1010.03 90.19 L1011.11 88.26 C1011.42 87.8 1011.82 87.33 1012.31 86.84 C1012.8 86.35 1013.33 85.09 1013.89 83.06 C1014.46 81.03 1015.09 79.62 1015.79 78.85 C1016.48 78.08 1017.5 77.7 1018.84 77.7 C1019.61 77.7 1020.63 78.07 1021.89 78.81 C1023.15 79.56 1024.38 81.81 1025.59 85.56 C1026.8 89.32 1027.41 91.97 1027.41 93.51 C1027.41 94.13 1027.59 94.91 1027.95 95.86 C1028.31 96.82 1028.54 97.55 1028.64 98.06 C1028.23 98.94 1028.03 99.43 1028.03 99.53 L1028.18 102.69 L1027.26 105.24 L1027.26 107.09 C1026.64 108.12 1026.33 108.76 1026.33 109.02 C1026.33 109.33 1026.43 109.63 1026.64 109.94 C1029.05 108.91 1030.52 108.08 1031.03 107.44 C1031.54 106.79 1032.04 106.39 1032.53 106.24 C1033.02 106.09 1033.83 105.42 1034.96 104.23 L1036.42 103.46 C1036.94 102.85 1037.37 102.29 1037.73 101.8 C1038.09 101.32 1038.51 100.97 1039 100.76 C1039.49 100.56 1040.07 100.2 1040.73 99.68 C1041.4 99.17 1042.38 98.58 1043.66 97.91 L1044.43 96.98 C1045.2 96.11 1046.11 95.41 1047.17 94.9 C1048.22 94.39 1048.8 94.13 1048.9 94.13 C1049.26 94.13 1049.63 94.6 1050.02 95.56 C1050.4 96.51 1050.59 97.45 1050.59 98.37 C1050.59 99.25 1050.09 100.11 1049.09 100.96 C1048.09 101.8 1047.41 102.43 1047.05 102.85 C1046.69 103.26 1045.87 103.62 1044.58 103.93 C1044.48 103.98 1043.63 105.03 1042.04 107.09 L1040.5 108.01 L1039.73 109.02 C1039.62 109.22 1038.93 109.43 1037.65 109.63 C1037.59 109.63 1037.48 109.89 1037.3 110.41 C1037.12 110.92 1036.57 111.28 1035.64 111.49 C1033.79 113.18 1032.84 114.14 1032.79 114.34 L1031.17 114.65 C1030.86 115.63 1030.61 116.22 1030.4 116.42 C1029.17 116.73 1028.47 117.25 1028.32 117.97 C1028.17 118.07 1027.91 118.17 1027.55 118.28 L1027.24 118.51 C1026.06 119.43 1024.9 120 1023.77 120.2 L1022 120.67 L1021.38 121.59 C1021.38 121.85 1020.75 122.18 1019.5 122.6 C1018.24 123.01 1017.3 123.52 1016.68 124.14 L1015.37 125.14 C1013.78 125.76 1012.78 126.32 1012.37 126.84 L1011.29 126.84 C1010.57 126.84 1009.44 127.37 1007.9 128.42 C1006.35 129.47 1005.12 130 1004.2 130 C1001.22 130 999.17 129.63 998.07 128.88 C996.96 128.14 996.05 127.21 995.33 126.11 C994.61 125 993.96 124.11 993.37 123.44 C992.78 122.78 992.48 122.24 992.48 121.82 C992.48 121.46 992.73 121.1 993.21 120.74 C993.7 120.38 994.23 119.65 994.79 118.55 C995.36 117.44 996.8 116.73 999.11 116.42 C999.21 116.42 999.59 116.27 1000.23 115.96 C1000.87 115.65 1001.4 115.5 1001.81 115.5 C1002.32 115.5 1002.96 115.96 1003.73 116.89 C1003.73 116.99 1003.84 117.04 1004.04 117.04 L1005.28 116.89 C1005.84 117.3 1006.23 117.5 1006.43 117.5 C1007.67 117.5 1008.98 116.89 1010.36 115.65 L1010.67 115.5 L1011.29 115.5 C1011.44 115.5 1011.7 115.06 1012.06 114.19 L1013.37 111.49 L1016.07 108.01 L1016.07 107.24 C1016.07 107.09 1016.22 106.63 1016.53 105.85 L1016.53 104.7 C1016.53 104.23 1016.84 103.94 1017.45 103.81 C1018.07 103.68 1018.38 103.36 1018.38 102.85 L1018.22 102.23 C1017.81 101.66 1017.61 101.23 1017.61 100.92 L1018.38 99.37 L1018.22 97.75 L1018.53 97.14 C1018.33 96.42 1018.22 96.01 1018.22 95.9 L1018.53 93.97 C1018.53 93.92 1018.39 93.43 1018.11 92.51 C1017.82 91.58 1017.61 91.12 1017.45 91.12 C1017.14 91.12 1016.16 91.92 1014.52 93.51 C1012.87 95.11 1011.89 96.24 1011.58 96.91 C1011.27 97.57 1010.62 98.18 1009.61 98.72 C1008.61 99.26 1007.92 99.86 1007.56 100.53 C1007.2 101.2 1006.77 101.59 1006.25 101.69 L1001.08 105.85 L995.44 110.02 C995.03 110.48 994.77 110.71 994.66 110.71 C992.76 110.71 991.81 109.66 991.81 107.55 C991.81 106.88 992.19 105.67 992.97 103.93 C993.33 103.72 993.6 103.57 993.78 103.46 C993.96 103.36 994.05 103.28 994.05 103.23 C994.05 103.18 993.99 103.15 993.89 103.15 L994.35 103.46 L994.51 103.46 C996.41 102.18 997.65 101.43 998.22 101.23 C998.78 101.02 999.3 100.45 999.76 99.53 L1003.01 97.21 C1003.83 96.6 1005.09 95.47 1006.79 93.82 C1008.49 92.17 1009.57 90.96 1010.03 90.19 Z" fill="#080808"/></svg>