<svg xmlns="http://www.w3.org/2000/svg" viewBox="0 0 1075 200" role="img" aria-label="aeden0119"><path d="M220.635 130.920L236.478 121.380Q234.093 125.468 232.815 127.939Q231.538 130.409 230.260 132.027Q228.982 133.646 227.364 134.923Q225.746 136.201 222.850 138.075L222.850 138.075Q220.976 139.778 219.102 140.971L219.102 140.971Q217.568 142.164 216.120 143.015Q214.672 143.867 213.821 143.867L213.821 143.867Q213.480 143.867 213.139 143.782Q212.798 143.697 212.458 143.697L212.458 143.697Q211.436 143.697 210.499 143.782Q209.562 143.867 208.880 142.504L208.880 142.504Q208.369 143.015 208.028 143.697Q207.688 144.378 207.347 144.974Q207.006 145.571 206.410 145.911Q205.814 146.252 204.792 145.911L204.792 145.911L203.940 144.889L201.384 147.104Q196.614 144.719 192.270 143.100Q187.926 141.482 184.519 139.267Q181.112 137.053 178.727 133.560Q176.342 130.068 175.320 123.935L175.320 123.935Q174.468 122.913 173.446 122.146Q172.424 121.380 171.061 121.721L171.061 121.721Q169.357 124.617 166.972 126.661Q164.587 128.705 162.202 131.090L162.202 131.090Q161.350 131.942 160.839 132.964Q160.328 133.986 159.477 134.838L159.477 134.838Q158.114 136.371 156.240 136.968Q154.366 137.564 152.492 138.075Q150.618 138.586 149.000 139.778Q147.381 140.971 146.700 143.867L146.700 143.867Q144.655 142.675 142.611 143.186L142.611 143.186Q141.078 143.526 139.374 143.952Q137.671 144.378 136.052 144.463Q134.434 144.549 132.901 144.037Q131.368 143.526 130.175 141.823L130.175 141.823Q127.790 142.845 125.746 141.738Q123.701 140.630 121.913 138.671Q120.124 136.712 118.420 134.497Q116.717 132.283 115.184 131.261L115.184 131.261Q114.161 128.535 115.269 126.576Q116.376 124.617 117.654 122.828Q118.931 121.039 119.443 119.250Q119.954 117.462 117.909 114.906L117.909 114.906Q119.613 112.351 120.976 109.540Q122.339 106.729 123.787 103.918Q125.235 101.107 126.853 98.467Q128.471 95.826 130.856 93.952L130.856 93.952Q129.834 92.760 129.834 91.652Q129.834 90.545 130.345 89.438Q130.856 88.331 131.538 87.223Q132.219 86.116 132.560 85.094L132.560 85.094L137.500 82.709L136.308 78.620Q138.182 78.961 139.119 78.450Q140.056 77.939 140.482 76.917Q140.908 75.894 141.163 74.617Q141.419 73.339 141.930 72.317L141.930 72.317Q142.781 70.784 144.485 70.102L144.485 70.102Q148.063 67.377 151.555 64.310Q155.047 61.244 158.540 58.348Q162.032 55.451 165.780 52.811Q169.528 50.170 173.957 48.296L173.957 48.296Q177.023 48.808 178.812 50.170Q180.601 51.533 181.538 53.407Q182.475 55.281 182.986 57.581Q183.497 59.881 184.008 62.095L184.008 62.095Q184.860 64.992 186.052 67.036Q187.245 69.080 190.141 70.443L190.141 70.443Q187.756 74.532 188.267 78.535Q188.778 82.538 189.289 86.968L189.289 86.968Q189.800 91.056 189.204 94.974Q188.608 98.893 184.178 101.959L184.178 101.959Q183.838 103.152 184.008 104.514Q184.178 105.877 184.178 107.240Q184.178 108.603 183.667 109.796Q183.156 110.988 181.793 111.669L181.793 111.669Q183.327 113.543 183.412 115.417Q183.497 117.291 183.582 118.995Q183.667 120.698 184.434 122.061Q185.201 123.424 188.097 124.106L188.097 124.106Q188.608 126.320 189.034 127.428Q189.459 128.535 190.056 129.216Q190.652 129.898 191.674 130.494Q192.696 131.090 194.400 132.283L194.400 132.283Q195.763 132.623 197.466 132.283Q199.170 131.942 200.192 133.305L200.192 133.305Q201.044 132.453 202.236 132.368Q203.429 132.283 204.451 132.453L204.451 132.453L206.666 136.201Q208.540 134.838 210.925 133.816Q213.310 132.794 215.524 132.112L215.524 132.112Q218.080 131.431 220.635 130.920L220.635 130.920ZM176.683 64.310L171.061 63.118Q169.528 64.480 167.313 65.843Q165.098 67.206 162.969 68.739Q160.839 70.273 159.306 72.061Q157.773 73.850 157.432 76.235L157.432 76.235Q153.514 76.917 151.981 79.472Q150.448 82.027 149.425 85.094Q148.403 88.160 147.211 91.141Q146.018 94.123 142.952 95.826L142.952 95.826Q141.930 96.508 141.078 96.508L141.078 96.508Q141.248 96.508 140.056 97.189L140.056 97.189Q138.182 98.552 136.819 100.596Q135.456 102.641 134.519 105.026Q133.582 107.411 132.816 109.881Q132.049 112.351 131.368 114.395L131.368 114.395Q128.983 114.736 127.790 115.417Q126.598 116.099 126.342 116.865Q126.086 117.632 126.427 118.654Q126.768 119.676 127.449 120.869L127.449 120.869Q128.131 121.891 128.897 123.254Q129.664 124.617 130.175 125.980Q130.686 127.342 130.771 128.705Q130.856 130.068 130.005 131.261L130.005 131.261Q132.390 133.135 134.604 132.027Q136.819 130.920 138.693 129.557L138.693 129.557Q139.374 129.046 140.141 128.450Q140.908 127.853 141.759 127.513L141.759 127.513Q145.678 128.365 148.914 127.002Q152.151 125.639 154.877 123.254Q157.603 120.869 160.158 118.143Q162.713 115.417 165.269 113.373L165.269 113.373L163.906 112.010Q166.972 111.158 168.250 109.710Q169.528 108.262 169.868 106.388Q170.209 104.514 169.868 102.385Q169.528 100.256 169.357 97.871L169.357 97.871Q169.187 96.508 169.272 95.230Q169.357 93.952 169.868 92.589L169.868 92.589Q168.505 88.671 169.442 85.094Q170.379 81.516 171.998 78.194Q173.616 74.872 175.149 71.465Q176.683 68.058 176.683 64.310L176.683 64.310ZM357.602 87.138L357.602 87.138Q356.069 88.671 355.303 89.523Q354.536 90.375 353.940 91.141Q353.343 91.908 352.577 92.760Q351.810 93.612 350.277 95.315L350.277 95.315Q348.914 96.678 347.722 98.211Q346.529 99.744 344.996 100.937L344.996 100.937Q342.952 100.426 341.844 101.448Q340.737 102.470 339.800 103.748Q338.863 105.026 338.096 106.133Q337.330 107.240 336.137 107.070L336.137 107.070Q332.049 109.284 327.960 110.903Q323.872 112.521 320.124 115.588L320.124 115.588L318.761 114.225L301.044 122.743Q300.192 123.083 299.340 123.765Q298.488 124.446 297.637 124.957L297.637 124.957Q293.889 127.002 289.885 128.620Q285.882 130.238 281.964 131.601L281.964 131.601L279.749 132.283Q281.112 135.690 279.749 137.053Q278.386 138.416 275.831 139.012Q273.275 139.608 270.209 139.778Q267.143 139.949 265.439 140.971L265.439 140.971Q263.395 140.630 261.265 140.715Q259.136 140.801 256.921 141.141L256.921 141.141Q254.536 141.482 252.492 141.482Q250.447 141.482 248.062 140.971L248.062 140.971L247.722 140.971Q244.826 142.334 242.696 141.567Q240.567 140.801 238.863 139.012Q237.160 137.223 235.712 134.753Q234.264 132.283 232.730 130.238L232.730 130.238Q231.708 128.876 230.175 126.320Q228.642 123.765 227.534 120.869Q226.427 117.973 226.172 114.991Q225.916 112.010 227.449 109.796L227.449 109.796Q228.982 107.581 229.919 105.026Q230.856 102.470 230.856 99.063L230.856 99.063Q230.856 97.871 230.771 96.848Q230.686 95.826 230.686 94.634L230.686 94.634Q231.538 94.634 232.560 94.719Q233.582 94.804 234.519 94.719Q235.456 94.634 236.052 94.037Q236.649 93.441 236.649 91.908L236.649 91.908Q236.649 91.056 236.052 90.545Q235.456 90.034 235.286 89.523L235.286 89.523Q236.308 87.990 237.245 87.053Q238.182 86.116 238.863 85.179Q239.545 84.242 239.885 82.964Q240.226 81.687 239.715 79.472L239.715 79.472Q241.759 75.894 244.570 73.084Q247.381 70.273 250.447 67.802Q253.514 65.332 256.751 62.947Q259.988 60.562 262.884 57.836L262.884 57.836Q266.120 59.199 268.079 57.836Q270.039 56.474 271.572 54.855Q273.105 53.237 274.638 52.215Q276.171 51.193 278.727 53.066L278.727 53.066L279.068 53.407Q283.667 48.808 288.352 49.319Q293.037 49.830 296.359 52.385Q299.681 54.940 300.703 58.262Q301.725 61.584 298.829 62.777L298.829 62.777Q300.703 64.651 300.703 67.206L300.703 67.206Q300.703 69.762 299.340 71.635L299.340 71.635Q297.807 73.680 296.700 75.809Q295.592 77.939 294.400 80.324L294.400 80.324Q292.696 84.242 290.652 87.734Q288.608 91.227 284.860 93.612L284.860 93.612Q281.793 92.760 280.686 94.293Q279.579 95.826 279.068 97.615Q278.556 99.404 277.875 100.426Q277.194 101.448 274.979 99.744L274.979 99.744L274.638 99.404L274.298 99.744Q272.935 101.107 272.168 102.811Q271.401 104.514 270.039 105.366L270.039 105.366Q268.505 104.855 266.802 104.514Q265.098 104.174 263.565 103.833L263.565 103.833Q263.565 107.411 262.202 109.455Q260.839 111.499 258.710 112.777Q256.580 114.055 253.855 114.821Q251.129 115.588 248.488 116.695Q245.848 117.802 243.548 119.421Q241.248 121.039 239.885 123.935L239.885 123.935Q241.589 125.809 244.144 126.065Q246.700 126.320 249.425 126.065Q252.151 125.809 254.792 125.809Q257.432 125.809 259.476 127.172L259.476 127.172L259.647 127.342L259.817 127.172Q263.906 126.661 267.739 125.213Q271.572 123.765 275.235 122.146Q278.897 120.528 282.730 119.080Q286.563 117.632 290.652 116.951L290.652 116.951Q291.504 118.313 292.952 118.484Q294.400 118.654 295.763 118.313L295.763 118.313L295.933 117.973Q296.274 116.780 296.614 115.843Q296.955 114.906 297.637 113.714L297.637 113.714Q298.829 111.840 300.533 110.818Q302.236 109.796 304.195 109.284Q306.154 108.773 308.369 108.603Q310.584 108.433 312.798 108.092L312.798 108.092L313.139 108.092L313.309 107.581Q313.991 105.537 315.098 104.770Q316.206 104.003 317.483 103.663Q318.761 103.322 320.209 103.152Q321.657 102.981 323.020 102.129L323.020 102.129Q326.086 103.152 328.131 101.448Q330.175 99.744 332.049 97.871L332.049 97.871L333.412 99.574L333.923 98.893Q336.478 96.508 337.756 95.315Q339.033 94.123 340.226 93.186Q341.418 92.249 343.037 91.312Q344.655 90.375 347.551 88.501L347.551 88.501Q349.936 86.968 352.236 85.434Q354.536 83.901 356.751 82.027L356.751 82.027Q357.602 82.368 357.602 83.305Q357.602 84.242 357.602 85.094L357.602 85.094Q357.432 85.434 357.347 86.116Q357.262 86.797 357.602 87.138ZM287.074 65.843L287.074 65.843Q286.904 65.673 286.819 65.673Q286.734 65.673 286.563 65.503L286.563 65.503Q282.986 63.629 280.601 63.714Q278.216 63.799 276.257 65.077Q274.298 66.354 272.679 68.313Q271.061 70.273 269.272 71.891Q267.483 73.509 265.098 74.361Q262.713 75.213 259.306 74.191L259.306 74.191Q258.795 76.917 258.369 79.557Q257.943 82.198 257.773 84.923L257.773 84.923Q254.877 85.945 253.258 87.819Q251.640 89.693 250.533 91.908Q249.425 94.123 248.488 96.593Q247.551 99.063 246.018 101.278L246.018 101.278L246.700 102.129Q247.381 101.789 248.233 102.641Q249.085 103.492 249.425 103.833L249.425 103.833Q251.299 101.107 254.451 99.233Q257.602 97.359 260.924 95.741Q264.246 94.123 267.313 92.249Q270.379 90.375 271.913 87.308L271.913 87.308Q277.364 85.775 280.090 81.175Q282.815 76.576 284.689 71.635L284.689 71.635Q285.030 70.613 285.967 68.654Q286.904 66.695 287.074 65.843ZM466.461 102.129L466.461 102.129Q462.713 110.647 459.647 115.332Q456.580 120.017 452.917 123.083Q449.255 126.150 444.485 128.790Q439.715 131.431 432.730 136.201L432.730 136.201Q429.834 136.371 426.427 137.479Q423.020 138.586 420.635 140.460L420.635 140.460Q415.524 139.949 411.265 138.245Q407.006 136.542 403.258 132.794L403.258 132.794Q402.406 131.942 401.725 130.920Q401.044 129.898 400.192 129.046L400.192 129.046Q398.318 126.831 397.807 125.128Q397.296 123.424 396.955 120.698L396.955 120.698Q396.274 116.780 394.911 115.077Q393.548 113.373 389.630 116.780L389.630 116.780L388.096 115.417L387.756 115.758Q386.222 116.951 385.286 117.802Q384.349 118.654 383.412 119.591Q382.475 120.528 381.623 121.550Q380.771 122.572 379.579 124.106L379.579 124.106Q377.534 126.661 375.064 129.387Q372.594 132.112 369.357 133.135L369.357 133.135Q368.846 133.646 368.505 134.072Q368.165 134.497 367.313 134.668L367.313 134.668Q366.291 135.008 364.928 134.497Q363.565 133.986 362.713 133.135L362.713 133.135Q360.839 133.135 359.391 134.072Q357.943 135.008 356.665 136.457Q355.388 137.905 354.280 139.438Q353.173 140.971 351.810 141.993L351.810 141.993Q349.085 140.971 346.785 141.652Q344.485 142.334 342.270 142.930Q340.056 143.526 337.841 143.441Q335.626 143.356 333.412 140.801L333.412 140.801Q332.389 135.690 331.708 131.431L331.708 131.431Q331.027 127.853 330.516 124.617Q330.004 121.380 330.004 120.698L330.004 120.698Q330.856 119.847 330.771 118.399Q330.686 116.951 330.345 115.928L330.345 115.928Q330.004 115.758 330.004 115.588Q330.004 115.417 329.664 115.247L329.664 115.247Q330.516 114.566 330.941 113.543Q331.367 112.521 332.219 111.840L332.219 111.840Q331.708 110.477 331.027 108.773Q330.345 107.070 330.345 105.366L330.345 105.366Q330.856 104.003 331.282 103.833Q331.708 103.663 333.241 103.322L333.241 103.322Q333.071 102.470 332.815 101.704Q332.560 100.937 332.730 100.085L332.730 100.085Q332.730 98.382 333.497 97.104Q334.263 95.826 335.115 94.549Q335.967 93.271 336.648 91.738Q337.330 90.204 337.330 88.160L337.330 88.160L337.330 87.308Q339.885 87.308 340.737 85.860Q341.589 84.412 341.759 82.538Q341.930 80.664 341.930 78.790Q341.930 76.917 342.952 76.065L342.952 76.065Q343.633 75.383 344.229 75.469Q344.826 75.554 345.677 75.554L345.677 75.554Q346.700 74.361 347.040 73.765Q347.381 73.169 346.870 71.465L346.870 71.465Q348.062 71.465 348.744 70.954Q349.425 70.443 349.851 69.591Q350.277 68.739 350.703 67.888Q351.129 67.036 351.810 66.354L351.810 66.354Q351.810 62.095 354.025 60.392Q356.240 58.688 359.050 57.581Q361.861 56.474 364.672 54.940Q367.483 53.407 368.846 49.489L368.846 49.489Q371.061 50.852 372.594 49.745Q374.127 48.637 375.490 47.360Q376.853 46.082 378.556 45.656Q380.260 45.230 382.815 47.956L382.815 47.956Q383.837 44.719 386.989 44.549Q390.141 44.378 392.696 45.911L392.696 45.911L392.696 46.082L392.866 46.082Q395.592 46.593 396.955 48.722Q398.318 50.852 399.255 53.492Q400.192 56.133 401.299 58.688Q402.406 61.244 404.451 62.777L404.451 62.777Q405.473 58.348 406.410 53.748Q407.347 49.148 409.561 45.060L409.561 45.060Q411.095 46.934 412.798 45.741L412.798 45.741L412.628 45.400Q412.628 42.675 413.735 40.460Q414.843 38.245 415.950 36.116Q417.057 33.986 417.313 31.687Q417.568 29.387 415.694 26.491L415.694 26.491Q418.590 25.639 419.868 23.254Q421.146 20.869 421.912 18.058Q422.679 15.247 423.616 12.351Q424.553 9.455 426.597 7.411L426.597 7.411Q426.597 6.900 426.512 6.389Q426.427 5.877 426.427 5.366L426.427 5.366Q426.597 4.004 427.449 2.981Q428.301 1.959 429.323 0.937Q430.345-0.085 431.112-1.363Q431.878-2.640 431.708-4.514L431.708-4.514Q433.412-6.729 434.774-10.392Q436.137-14.054 437.670-17.291Q439.204-20.528 441.248-22.146Q443.292-23.765 446.529-21.891L446.529-21.891Q447.210-19.847 447.040-18.228Q446.870-16.610 445.166-14.906L445.166-14.906Q446.188-13.884 446.699-13.203L446.699-13.203Q446.188-7.922 444.740-2.726Q443.292 2.470 441.929 7.411L441.929 7.411Q442.270 7.751 442.611 8.092Q442.952 8.433 443.292 8.774L443.292 8.774Q440.396 12.862 438.607 16.951Q436.819 21.039 435.456 25.809L435.456 25.809Q434.945 27.683 434.519 29.727Q434.093 31.772 433.412 33.475L433.412 33.475Q432.560 35.179 431.367 37.138Q430.175 39.097 429.323 40.971L429.323 40.971Q427.449 44.889 426.001 48.893Q424.553 52.896 423.190 56.985L423.190 56.985Q421.486 61.925 419.698 66.695Q417.909 71.465 415.354 76.065L415.354 76.065L415.354 78.790Q415.183 80.664 414.161 81.431Q413.139 82.198 411.861 82.794Q410.584 83.390 409.391 84.497Q408.199 85.605 407.688 88.160L407.688 88.160L407.688 88.331L407.858 88.501Q409.561 92.249 408.624 95.400Q407.688 98.552 406.495 101.533Q405.303 104.514 404.877 107.411Q404.451 110.307 407.176 113.373L407.176 113.373Q407.006 116.780 408.539 118.739Q410.073 120.698 412.117 122.061Q414.161 123.424 416.291 124.531Q418.420 125.639 419.442 127.342L419.442 127.342Q421.146 125.639 423.105 124.702Q425.064 123.765 427.023 123.254Q428.982 122.743 430.941 122.317Q432.900 121.891 434.774 121.210L434.774 121.210Q439.204 120.017 440.907 118.313Q442.611 116.610 442.611 116.099L442.611 116.099Q442.781 113.714 444.400 113.032Q446.018 112.351 448.147 112.095Q450.277 111.840 452.406 111.329Q454.536 110.818 455.558 108.773L455.558 108.773Q457.432 108.944 458.880 107.496Q460.328 106.048 461.521 104.514Q462.713 102.981 463.906 101.959Q465.098 100.937 466.461 102.129ZM395.933 77.087L396.444 75.894Q393.718 73.850 392.781 71.210Q391.844 68.569 391.248 65.843Q390.652 63.118 389.715 60.647Q388.778 58.177 386.052 56.474L386.052 56.474L385.711 56.303Q385.541 56.303 383.837 56.644Q382.134 56.985 381.793 57.155L381.793 57.155Q383.156 58.348 383.497 59.199Q383.837 60.051 383.582 60.903Q383.326 61.755 382.730 62.692Q382.134 63.629 381.793 64.992L381.793 64.992Q381.452 65.332 380.430 64.736Q379.408 64.140 378.897 63.799L378.897 63.799Q376.512 67.377 372.168 68.484Q367.824 69.591 363.906 70.613L363.906 70.613Q364.246 71.465 364.587 72.147Q364.928 72.828 365.268 73.680L365.268 73.680Q360.158 77.087 357.858 81.942Q355.558 86.797 353.769 91.993Q351.981 97.189 349.510 102.044Q347.040 106.899 341.930 110.307L341.930 110.307Q342.781 111.669 343.122 113.032Q343.463 114.395 345.337 115.077L345.337 115.077Q345.848 116.951 345.763 118.910Q345.677 120.869 345.337 122.743Q344.996 124.617 344.911 126.576Q344.826 128.535 345.337 130.579L345.337 130.579L345.677 130.920Q350.958 132.794 353.940 131.261Q356.921 129.727 359.221 127.342Q361.521 124.957 364.246 122.913Q366.972 120.869 371.912 121.891L371.912 121.891L372.594 120.869Q372.253 120.017 372.083 119.336Q371.912 118.654 371.912 117.802L371.912 117.802Q372.083 115.928 372.935 114.821Q373.786 113.714 375.149 112.351L375.149 112.351Q376.342 110.988 377.449 109.455Q378.556 107.922 379.579 106.218L379.579 106.218Q380.601 104.685 381.964 103.578Q383.326 102.470 385.541 103.322L385.541 103.322L388.778 91.056Q388.948 90.204 390.396 89.523Q391.844 88.842 392.952 87.990Q394.059 87.138 394.314 85.775Q394.570 84.412 392.355 82.198L392.355 82.198Q392.696 81.516 392.866 80.494Q393.037 79.472 393.377 78.620Q393.718 77.768 394.229 77.257Q394.740 76.746 395.933 77.087L395.933 77.087ZM578.727 87.138L578.727 87.138Q577.193 88.671 576.427 89.523Q575.660 90.375 575.064 91.141Q574.468 91.908 573.701 92.760Q572.934 93.612 571.401 95.315L571.401 95.315Q570.038 96.678 568.846 98.211Q567.653 99.744 566.120 100.937L566.120 100.937Q564.076 100.426 562.968 101.448Q561.861 102.470 560.924 103.748Q559.987 105.026 559.221 106.133Q558.454 107.240 557.261 107.070L557.261 107.070Q553.173 109.284 549.084 110.903Q544.996 112.521 541.248 115.588L541.248 115.588L539.885 114.225L522.168 122.743Q521.316 123.083 520.464 123.765Q519.612 124.446 518.761 124.957L518.761 124.957Q515.013 127.002 511.009 128.620Q507.006 130.238 503.088 131.601L503.088 131.601L500.873 132.283Q502.236 135.690 500.873 137.053Q499.510 138.416 496.955 139.012Q494.400 139.608 491.333 139.778Q488.267 139.949 486.563 140.971L486.563 140.971Q484.519 140.630 482.389 140.715Q480.260 140.801 478.045 141.141L478.045 141.141Q475.660 141.482 473.616 141.482Q471.572 141.482 469.187 140.971L469.187 140.971L468.846 140.971Q465.950 142.334 463.820 141.567Q461.691 140.801 459.987 139.012Q458.284 137.223 456.836 134.753Q455.388 132.283 453.854 130.238L453.854 130.238Q452.832 128.876 451.299 126.320Q449.766 123.765 448.659 120.869Q447.551 117.973 447.296 114.991Q447.040 112.010 448.573 109.796L448.573 109.796Q450.107 107.581 451.044 105.026Q451.980 102.470 451.980 99.063L451.980 99.063Q451.980 97.871 451.895 96.848Q451.810 95.826 451.810 94.634L451.810 94.634Q452.662 94.634 453.684 94.719Q454.706 94.804 455.643 94.719Q456.580 94.634 457.176 94.037Q457.773 93.441 457.773 91.908L457.773 91.908Q457.773 91.056 457.176 90.545Q456.580 90.034 456.410 89.523L456.410 89.523Q457.432 87.990 458.369 87.053Q459.306 86.116 459.987 85.179Q460.669 84.242 461.009 82.964Q461.350 81.687 460.839 79.472L460.839 79.472Q462.883 75.894 465.694 73.084Q468.505 70.273 471.572 67.802Q474.638 65.332 477.875 62.947Q481.112 60.562 484.008 57.836L484.008 57.836Q487.245 59.199 489.204 57.836Q491.163 56.474 492.696 54.855Q494.229 53.237 495.762 52.215Q497.296 51.193 499.851 53.066L499.851 53.066L500.192 53.407Q504.791 48.808 509.476 49.319Q514.161 49.830 517.483 52.385Q520.805 54.940 521.827 58.262Q522.849 61.584 519.953 62.777L519.953 62.777Q521.827 64.651 521.827 67.206L521.827 67.206Q521.827 69.762 520.464 71.635L520.464 71.635Q518.931 73.680 517.824 75.809Q516.716 77.939 515.524 80.324L515.524 80.324Q513.820 84.242 511.776 87.734Q509.732 91.227 505.984 93.612L505.984 93.612Q502.917 92.760 501.810 94.293Q500.703 95.826 500.192 97.615Q499.681 99.404 498.999 100.426Q498.318 101.448 496.103 99.744L496.103 99.744L495.762 99.404L495.422 99.744Q494.059 101.107 493.292 102.811Q492.526 104.514 491.163 105.366L491.163 105.366Q489.630 104.855 487.926 104.514Q486.222 104.174 484.689 103.833L484.689 103.833Q484.689 107.411 483.326 109.455Q481.963 111.499 479.834 112.777Q477.704 114.055 474.979 114.821Q472.253 115.588 469.613 116.695Q466.972 117.802 464.672 119.421Q462.372 121.039 461.009 123.935L461.009 123.935Q462.713 125.809 465.268 126.065Q467.824 126.320 470.549 126.065Q473.275 125.809 475.916 125.809Q478.556 125.809 480.601 127.172L480.601 127.172L480.771 127.342L480.941 127.172Q485.030 126.661 488.863 125.213Q492.696 123.765 496.359 122.146Q500.021 120.528 503.854 119.080Q507.687 117.632 511.776 116.951L511.776 116.951Q512.628 118.313 514.076 118.484Q515.524 118.654 516.887 118.313L516.887 118.313L517.057 117.973Q517.398 116.780 517.739 115.843Q518.079 114.906 518.761 113.714L518.761 113.714Q519.953 111.840 521.657 110.818Q523.360 109.796 525.319 109.284Q527.279 108.773 529.493 108.603Q531.708 108.433 533.922 108.092L533.922 108.092L534.263 108.092L534.434 107.581Q535.115 105.537 536.222 104.770Q537.330 104.003 538.607 103.663Q539.885 103.322 541.333 103.152Q542.781 102.981 544.144 102.129L544.144 102.129Q547.210 103.152 549.255 101.448Q551.299 99.744 553.173 97.871L553.173 97.871L554.536 99.574L555.047 98.893Q557.602 96.508 558.880 95.315Q560.158 94.123 561.350 93.186Q562.543 92.249 564.161 91.312Q565.779 90.375 568.675 88.501L568.675 88.501Q571.060 86.968 573.360 85.434Q575.660 83.901 577.875 82.027L577.875 82.027Q578.727 82.368 578.727 83.305Q578.727 84.242 578.727 85.094L578.727 85.094Q578.556 85.434 578.471 86.116Q578.386 86.797 578.727 87.138ZM508.198 65.843L508.198 65.843Q508.028 65.673 507.943 65.673Q507.858 65.673 507.687 65.503L507.687 65.503Q504.110 63.629 501.725 63.714Q499.340 63.799 497.381 65.077Q495.422 66.354 493.803 68.313Q492.185 70.273 490.396 71.891Q488.607 73.509 486.222 74.361Q483.837 75.213 480.430 74.191L480.430 74.191Q479.919 76.917 479.493 79.557Q479.067 82.198 478.897 84.923L478.897 84.923Q476.001 85.945 474.383 87.819Q472.764 89.693 471.657 91.908Q470.549 94.123 469.613 96.593Q468.676 99.063 467.142 101.278L467.142 101.278L467.824 102.129Q468.505 101.789 469.357 102.641Q470.209 103.492 470.549 103.833L470.549 103.833Q472.423 101.107 475.575 99.233Q478.727 97.359 482.049 95.741Q485.371 94.123 488.437 92.249Q491.503 90.375 493.037 87.308L493.037 87.308Q498.488 85.775 501.214 81.175Q503.940 76.576 505.813 71.635L505.813 71.635Q506.154 70.613 507.091 68.654Q508.028 66.695 508.198 65.843ZM647.721 133.135L647.721 133.135Q647.892 135.179 647.040 136.201Q646.188 137.223 644.740 137.734Q643.292 138.245 641.588 138.501Q639.885 138.756 638.692 139.438L638.692 139.438Q633.752 138.927 629.152 137.990Q624.553 137.053 620.634 135.094Q616.716 133.135 613.565 129.898Q610.413 126.661 608.198 121.721L608.198 121.721Q610.413 118.143 609.732 113.799Q609.050 109.455 608.454 105.366Q607.858 101.278 608.624 97.871Q609.391 94.463 614.502 92.419L614.502 92.419Q614.161 90.545 614.587 88.331Q615.013 86.116 613.309 84.583L613.309 84.583Q607.347 86.627 602.917 90.375Q598.488 94.123 594.485 98.552Q590.481 102.981 586.478 107.496Q582.474 112.010 577.704 115.417L577.704 115.417Q575.490 115.588 573.020 115.162Q570.549 114.736 568.846 116.610L568.846 116.610Q569.016 117.802 569.698 118.654Q570.379 119.506 570.805 120.358Q571.231 121.210 571.231 122.146Q571.231 123.083 570.038 124.276L570.038 124.276Q568.335 125.980 566.376 127.087Q564.416 128.194 562.628 129.472Q560.839 130.750 559.646 132.453Q558.454 134.157 558.454 137.053L558.454 137.053Q557.432 136.542 556.580 136.797Q555.728 137.053 554.962 137.734Q554.195 138.416 553.514 139.267Q552.832 140.119 552.151 140.630L552.151 140.630Q551.810 141.482 552.321 142.078Q552.832 142.675 553.514 143.356L553.514 143.356Q552.832 145.230 551.725 145.656Q550.618 146.082 549.340 145.741Q548.062 145.400 546.784 144.634Q545.507 143.867 544.485 143.356L544.485 143.356Q543.974 141.141 543.803 138.245Q543.633 135.349 543.974 132.538Q544.314 129.727 545.336 127.172Q546.359 124.617 548.403 122.913L548.403 122.913Q549.084 122.402 549.255 122.317Q549.425 122.232 549.425 122.232L549.425 122.232Q549.425 122.232 549.595 122.146Q549.766 122.061 550.277 121.550L550.277 121.550Q551.640 120.017 552.151 118.228Q552.662 116.440 553.003 114.566Q553.343 112.692 553.940 110.903Q554.536 109.114 556.069 107.751L556.069 107.751Q555.388 105.026 556.154 102.896Q556.921 100.767 558.198 98.807Q559.476 96.848 560.754 94.889Q562.031 92.930 562.372 90.545L562.372 90.545Q562.543 89.693 562.457 88.927Q562.372 88.160 562.372 87.308L562.372 87.308Q562.031 84.583 562.968 83.135Q563.905 81.687 565.353 80.750Q566.802 79.813 568.420 78.790Q570.038 77.768 571.231 75.724L571.231 75.724Q576.171 78.109 577.108 82.112Q578.045 86.116 577.704 91.056L577.704 91.056Q574.808 92.930 573.275 96.252Q571.742 99.574 571.231 102.641L571.231 102.641Q571.572 103.663 572.168 103.748Q572.764 103.833 573.531 103.578Q574.297 103.322 574.979 102.981Q575.660 102.641 576.342 102.641L576.342 102.641Q582.474 98.382 588.522 93.101Q594.570 87.819 597.977 81.005L597.977 81.005Q602.917 78.620 607.347 75.469Q611.776 72.317 617.057 70.784L617.057 70.784L620.975 66.865Q621.827 68.228 623.020 67.462Q624.212 66.695 625.405 65.673Q626.597 64.651 627.704 64.480Q628.812 64.310 629.834 66.865L629.834 66.865Q631.537 71.295 630.686 75.469Q629.834 79.642 628.045 83.646Q626.256 87.649 624.382 91.738Q622.508 95.826 622.168 100.085L622.168 100.085Q622.168 101.107 622.168 102.215Q622.168 103.322 621.997 104.514L621.997 104.514Q621.657 108.092 621.060 112.266Q620.464 116.440 621.486 119.847L621.486 119.847Q622.338 122.913 625.064 125.298Q627.790 127.683 629.834 130.068L629.834 130.068Q631.026 129.898 632.219 130.238Q633.411 130.579 634.519 130.920Q635.626 131.261 636.648 131.175Q637.670 131.090 638.692 130.068L638.692 130.068Q639.885 129.557 640.992 130.153Q642.100 130.750 643.122 131.601Q644.144 132.453 645.251 133.049Q646.358 133.646 647.721 133.135ZM746.869 55.792L746.869 55.792Q745.847 58.007 744.910 59.710Q743.973 61.414 744.484 64.140L744.484 64.140L743.292 64.140Q742.270 68.228 740.737 71.976Q739.203 75.724 737.329 79.472Q735.456 83.220 733.496 86.882Q731.537 90.545 730.004 94.463L730.004 94.463L728.812 93.271Q727.789 94.634 727.023 96.678Q726.256 98.722 725.319 100.681Q724.382 102.641 723.190 104.259Q721.997 105.877 720.294 106.388L720.294 106.388L719.101 105.196Q715.013 109.796 709.732 113.203Q704.450 116.610 699.851 120.869L699.851 120.869Q697.125 119.676 694.825 120.443Q692.525 121.210 690.396 122.232Q688.266 123.254 686.137 123.680Q684.008 124.106 681.452 122.232L681.452 122.232Q679.919 124.106 678.386 123.339Q676.852 122.572 675.319 121.380Q673.786 120.187 672.338 119.847Q670.890 119.506 669.527 122.232L669.527 122.232Q667.994 120.698 666.376 119.165Q664.757 117.632 662.372 118.484L662.372 118.484Q661.691 117.291 660.669 115.843Q659.646 114.395 658.795 112.692Q657.943 110.988 657.517 109.370Q657.091 107.751 657.432 106.388L657.432 106.388Q655.217 104.344 655.473 102.300Q655.728 100.256 656.835 98.126Q657.943 95.997 659.391 93.782Q660.839 91.567 661.009 89.523L661.009 89.523Q663.905 85.094 666.972 81.090Q670.038 77.087 672.764 72.828L672.764 72.828Q673.956 70.954 674.893 69.080Q675.830 67.206 676.852 65.332L676.852 65.332Q678.045 63.118 679.834 62.095Q681.623 61.073 683.411 60.222Q685.200 59.370 686.393 58.177Q687.585 56.985 687.585 54.429L687.585 54.429Q689.629 51.022 693.036 48.552Q696.444 46.082 699.936 43.612Q703.428 41.141 706.154 38.331Q708.880 35.520 709.391 31.431L709.391 31.431Q715.183 26.491 722.423 25.724Q729.663 24.957 736.137 29.046L736.137 29.046Q738.352 32.283 741.162 35.179Q743.973 38.075 746.018 41.227Q748.062 44.378 748.573 47.871Q749.084 51.363 746.869 55.792ZM738.522 44.719L738.522 44.719Q736.137 44.719 734.604 43.271Q733.070 41.823 731.878 40.119Q730.685 38.416 729.493 36.883Q728.300 35.349 726.256 35.179L726.256 35.179Q723.190 37.564 720.805 40.460Q718.420 43.356 715.950 46.167Q713.479 48.978 710.498 51.193Q707.517 53.407 703.258 54.429L703.258 54.429Q704.791 56.644 704.025 58.007Q703.258 59.370 701.554 60.392Q699.851 61.414 697.892 62.521Q695.933 63.629 694.910 65.332L694.910 65.332Q692.866 68.739 691.333 70.869Q689.800 72.998 688.096 74.702Q686.393 76.405 684.348 78.109Q682.304 79.813 679.238 82.198L679.238 82.198Q678.897 85.264 677.449 87.905Q676.001 90.545 674.382 93.101Q672.764 95.656 671.231 98.296Q669.697 100.937 669.527 104.003L669.527 104.003Q672.423 105.877 675.660 107.496Q678.897 109.114 681.452 111.329L681.452 111.329Q685.711 111.158 689.289 109.455Q692.866 107.751 696.273 105.707Q699.680 103.663 703.088 101.704Q706.495 99.744 710.583 99.063L710.583 99.063L710.583 96.848Q712.628 96.508 713.990 95.400Q715.353 94.293 716.375 92.760Q717.398 91.227 718.335 89.608Q719.272 87.990 720.464 86.627L720.464 86.627Q721.145 85.945 721.316 85.690Q721.486 85.434 721.571 85.434Q721.657 85.434 721.827 85.349Q721.997 85.264 722.679 84.583L722.679 84.583Q726.767 81.346 728.726 76.320Q730.685 71.295 731.963 65.758Q733.241 60.222 734.604 54.685Q735.967 49.148 738.522 44.719ZM812.116 26.150L812.116 26.150Q812.116 28.024 811.435 29.983Q810.754 31.942 809.902 33.986Q809.050 36.031 808.369 38.160Q807.687 40.290 807.687 42.504L807.687 42.504L804.621 45.571L805.643 46.593Q803.087 47.445 801.980 49.659Q800.873 51.874 800.106 54.344Q799.340 56.814 798.317 58.944Q797.295 61.073 794.740 61.755L794.740 61.755Q793.718 65.843 791.503 69.336Q789.289 72.828 786.903 76.065L786.903 76.065Q786.052 77.087 785.285 78.109Q784.518 79.131 784.007 80.153L784.007 80.153Q783.156 81.687 782.474 83.305Q781.793 84.923 780.600 86.457L780.600 86.457Q779.408 88.160 778.045 89.779Q776.682 91.397 775.490 93.271L775.490 93.271Q774.978 94.123 774.382 94.889Q773.786 95.656 773.275 96.508L773.275 96.508Q771.231 99.574 769.527 102.044Q767.823 104.514 766.631 108.262L766.631 108.262Q764.076 109.966 762.372 112.436Q760.668 114.906 759.306 117.376Q757.943 119.847 756.409 122.061Q754.876 124.276 752.662 125.468L752.662 125.468Q751.299 124.617 750.873 123.254Q750.447 121.891 750.447 120.443Q750.447 118.995 750.532 117.547Q750.617 116.099 750.447 114.736L750.447 114.736Q753.002 113.714 753.854 111.840Q754.706 109.966 755.132 107.751Q755.558 105.537 755.898 103.322Q756.239 101.107 757.602 99.404L757.602 99.404Q758.283 98.552 758.794 98.211Q759.306 97.871 760.157 97.359L760.157 97.359Q762.372 95.826 764.161 92.845Q765.950 89.864 767.483 86.457Q769.016 83.049 770.294 79.557Q771.571 76.065 773.105 73.680L773.105 73.680L777.534 70.613L776.512 69.250Q778.556 67.206 779.834 64.821Q781.111 62.436 782.559 59.966Q784.007 57.496 785.796 55.451Q787.585 53.407 790.481 52.044L790.481 52.044Q790.140 48.296 791.248 45.145Q792.355 41.993 794.229 39.353Q796.103 36.712 798.488 34.327Q800.873 31.942 803.258 29.387L803.258 29.387Q802.917 25.639 805.643 23.935L805.643 23.935Q806.495 24.276 807.602 24.021Q808.709 23.765 809.731 23.765Q810.754 23.765 811.435 24.191Q812.116 24.617 812.116 26.150ZM875.489 26.150L875.489 26.150Q875.489 28.024 874.808 29.983Q874.127 31.942 873.275 33.986Q872.423 36.031 871.742 38.160Q871.060 40.290 871.060 42.504L871.060 42.504L867.994 45.571L869.016 46.593Q866.460 47.445 865.353 49.659Q864.246 51.874 863.479 54.344Q862.713 56.814 861.690 58.944Q860.668 61.073 858.113 61.755L858.113 61.755Q857.091 65.843 854.876 69.336Q852.662 72.828 850.277 76.065L850.277 76.065Q849.425 77.087 848.658 78.109Q847.892 79.131 847.380 80.153L847.380 80.153Q846.529 81.687 845.847 83.305Q845.166 84.923 843.973 86.457L843.973 86.457Q842.781 88.160 841.418 89.779Q840.055 91.397 838.863 93.271L838.863 93.271Q838.351 94.123 837.755 94.889Q837.159 95.656 836.648 96.508L836.648 96.508Q834.604 99.574 832.900 102.044Q831.196 104.514 830.004 108.262L830.004 108.262Q827.449 109.966 825.745 112.436Q824.041 114.906 822.679 117.376Q821.316 119.847 819.783 122.061Q818.249 124.276 816.035 125.468L816.035 125.468Q814.672 124.617 814.246 123.254Q813.820 121.891 813.820 120.443Q813.820 118.995 813.905 117.547Q813.990 116.099 813.820 114.736L813.820 114.736Q816.375 113.714 817.227 111.840Q818.079 109.966 818.505 107.751Q818.931 105.537 819.271 103.322Q819.612 101.107 820.975 99.404L820.975 99.404Q821.656 98.552 822.168 98.211Q822.679 97.871 823.530 97.359L823.530 97.359Q825.745 95.826 827.534 92.845Q829.323 89.864 830.856 86.457Q832.389 83.049 833.667 79.557Q834.944 76.065 836.478 73.680L836.478 73.680L840.907 70.613L839.885 69.250Q841.929 67.206 843.207 64.821Q844.484 62.436 845.932 59.966Q847.380 57.496 849.169 55.451Q850.958 53.407 853.854 52.044L853.854 52.044Q853.513 48.296 854.621 45.145Q855.728 41.993 857.602 39.353Q859.476 36.712 861.861 34.327Q864.246 31.942 866.631 29.387L866.631 29.387Q866.290 25.639 869.016 23.935L869.016 23.935Q869.868 24.276 870.975 24.021Q872.082 23.765 873.104 23.765Q874.127 23.765 874.808 24.191Q875.489 24.617 875.489 26.150ZM958.454 30.920L953.172 34.327Q954.706 34.838 955.983 36.286Q957.261 37.734 956.409 39.608L956.409 39.608Q955.898 40.971 955.046 40.801Q954.195 40.630 953.258 40.204Q952.321 39.779 951.384 39.608Q950.447 39.438 949.765 40.630L949.765 40.630Q949.595 41.993 950.532 42.845Q951.469 43.697 950.958 45.060L950.958 45.060Q950.276 44.719 949.680 45.230Q949.084 45.741 948.743 46.082L948.743 46.082Q948.743 46.934 948.828 47.956Q948.914 48.978 949.765 49.489L949.765 49.489Q948.743 50.681 948.573 52.385Q948.402 54.089 948.147 55.792Q947.891 57.496 947.125 59.029Q946.358 60.562 944.314 61.244L944.314 61.244Q943.121 64.651 942.355 68.143Q941.588 71.635 941.247 75.213L941.247 75.213Q938.862 73.850 936.392 74.361Q933.922 74.872 932.559 77.257L932.559 77.257Q934.774 78.279 934.689 79.642Q934.604 81.005 934.178 82.283Q933.752 83.560 933.667 84.838Q933.581 86.116 935.796 87.138L935.796 87.138Q936.307 90.034 934.689 92.164Q933.070 94.293 931.367 96.252Q929.663 98.211 928.641 100.426Q927.619 102.641 929.322 105.366L929.322 105.366Q925.575 106.388 924.552 108.944Q923.530 111.499 923.275 114.480Q923.019 117.462 922.338 120.358Q921.656 123.254 918.590 124.957L918.590 124.957Q919.101 127.683 918.079 130.238Q917.057 132.794 914.161 133.475L914.161 133.475Q913.990 131.772 912.798 130.238Q911.605 128.705 910.328 127.087Q909.050 125.468 908.113 123.595Q907.176 121.721 907.687 119.506L907.687 119.506Q910.413 117.632 910.668 115.162Q910.924 112.692 910.839 110.307Q910.753 107.922 911.265 105.792Q911.776 103.663 915.183 102.300L915.183 102.300Q915.353 100.085 916.205 97.871Q917.057 95.656 917.994 93.612Q918.931 91.567 919.697 89.438Q920.464 87.308 920.634 85.094L920.634 85.094Q920.975 84.412 921.742 83.816Q922.508 83.220 923.190 82.538Q923.871 81.857 924.212 81.175Q924.552 80.494 924.041 79.642L924.041 79.642Q923.360 78.620 922.508 78.535Q921.656 78.450 920.634 78.620L920.634 78.620Q918.420 80.664 915.438 81.772Q912.457 82.879 909.220 83.816Q905.983 84.753 902.832 85.690Q899.680 86.627 896.954 88.160L896.954 88.160Q894.058 87.138 891.248 86.712Q888.437 86.286 886.052 83.901L886.052 83.901Q887.926 82.027 886.903 81.261Q885.881 80.494 884.007 80.664L884.007 80.664Q884.859 75.213 880.771 71.976L880.771 71.976Q883.156 69.080 885.200 65.843Q887.244 62.607 890.481 60.051L890.481 60.051Q889.118 59.540 889.374 58.262Q889.629 56.985 889.459 55.963L889.459 55.963Q890.311 55.451 891.248 55.026Q892.184 54.600 892.951 54.003Q893.718 53.407 893.973 52.641Q894.229 51.874 893.718 50.511L893.718 50.511Q895.762 50.511 896.954 49.319Q898.147 48.126 899.084 46.678Q900.021 45.230 901.213 44.038Q902.406 42.845 904.450 42.845L904.450 42.845Q908.368 38.586 912.627 34.753Q916.886 30.920 919.612 25.469L919.612 25.469Q919.271 26.831 920.208 27.513Q921.145 28.194 921.827 28.876L921.827 28.876Q922.849 26.491 924.212 26.235Q925.575 25.980 926.937 26.150Q928.300 26.320 929.493 26.065Q930.685 25.809 931.537 23.424L931.537 23.424Q934.774 21.039 938.522 18.569Q942.270 16.099 946.699 15.929L946.699 15.929L950.958 20.187L953.172 17.973Q953.684 19.336 955.046 19.080Q956.409 18.825 957.431 18.995L957.431 18.995Q957.431 20.699 957.943 22.147Q958.454 23.595 958.879 25.043Q959.305 26.491 959.391 27.939Q959.476 29.387 958.454 30.920L958.454 30.920ZM945.677 33.135L945.677 33.135Q944.995 32.113 944.655 31.176Q944.314 30.239 943.803 29.557Q943.292 28.876 942.525 28.620Q941.759 28.365 940.225 28.876L940.225 28.876Q939.544 28.535 939.374 28.791Q939.203 29.046 939.033 29.387Q938.862 29.727 938.692 30.239Q938.522 30.750 937.840 30.920L937.840 30.920Q936.477 31.431 935.540 30.579Q934.604 29.727 933.752 28.876L933.752 28.876L932.559 30.920Q931.537 31.431 930.770 32.709Q930.004 33.986 929.152 35.094Q928.300 36.201 927.108 36.712Q925.915 37.223 924.041 36.371L924.041 36.371Q924.041 36.883 924.127 37.905Q924.212 38.927 924.041 39.949Q923.871 40.971 923.360 41.653Q922.849 42.334 921.827 41.823L921.827 41.823Q921.827 42.675 921.656 43.612Q921.486 44.549 920.634 45.060L920.634 45.060Q917.057 44.378 914.075 45.997Q911.094 47.615 908.539 50.341Q905.983 53.066 903.684 56.048Q901.384 59.029 899.169 61.244L899.169 61.244Q896.273 61.925 895.932 63.543Q895.592 65.162 895.762 66.951Q895.932 68.739 895.592 70.187Q895.251 71.635 892.525 71.976L892.525 71.976L893.718 73.169L892.525 74.191Q893.888 75.894 895.847 77.002Q897.806 78.109 900.191 77.257L900.191 77.257Q901.554 74.872 903.598 75.128Q905.643 75.383 907.602 75.894Q909.561 76.405 911.094 75.980Q912.627 75.554 913.138 71.976L913.138 71.976Q914.331 72.317 915.609 72.061Q916.886 71.806 917.568 73.169L917.568 73.169Q921.656 66.865 926.341 61.584Q931.026 56.303 936.818 51.533L936.818 51.533Q937.159 46.423 939.629 41.567Q942.099 36.712 945.677 33.135Z" fill="#0a0a0a"/></svg>